<svg width="22" height="19" viewBox="0 0 22 19" fill="none" xmlns="http://www.w3.org/2000/svg">
<path d="M0.767442 9.73939H2.81395M19.186 9.73939H21.2326M1.7907 17.9357L1.80093 17.9244M4.86047 13.8426L4.8707 13.8314M7.93023 17.9357L7.94047 17.9244M14.0698 17.9357L14.08 17.9244M17.1395 13.8426L17.1498 13.8314M20.2093 17.9357L20.2195 17.9244M11.4052 0.935297L14.5814 4.11148C15.2898 4.81983 15.7723 5.72235 15.9678 6.7049C16.1632 7.68745 16.063 8.7059 15.6796 9.63146C15.2963 10.557 14.647 11.3481 13.8141 11.9047C12.9811 12.4613 12.0018 12.7584 11 12.7584C9.99819 12.7584 9.01888 12.4613 8.18592 11.9047C7.35295 11.3481 6.70374 10.557 6.32039 9.63146C5.93704 8.7059 5.83677 7.68745 6.03225 6.7049C6.22773 5.72235 6.71018 4.81983 7.4186 4.11148L10.5948 0.935297C10.648 0.882081 10.7112 0.839867 10.7807 0.811066C10.8502 0.782266 10.9247 0.767442 11 0.767442C11.0753 0.767442 11.1498 0.782266 11.2193 0.811066C11.2888 0.839867 11.352 0.882081 11.4052 0.935297Z" stroke="#061F25" stroke-width="1.5" stroke-linecap="round" stroke-linejoin="round"/>
</svg>
