<svg width="95" height="62" viewBox="0 0 95 62" fill="none" xmlns="http://www.w3.org/2000/svg">
<path fill-rule="evenodd" clip-rule="evenodd" d="M94.8285 0.444397C94.7262 -0.210288 93.8871 -0.0825444 93.7207 0.444397C93.0798 2.47999 92.8387 4.61458 92.0596 6.61824C91.304 8.5625 90.2538 10.3937 88.9655 11.9739C86.5165 14.9771 83.263 16.9648 79.8479 18.3892C73.0664 21.2174 65.4094 22.1978 59.3629 26.8477C52.846 31.8597 49.7455 40.2978 44.1324 46.2711C38.9162 51.8222 32.257 55.4891 25.258 57.5828C21.6905 58.6501 18.0255 59.3297 14.3416 59.6867C10.6254 60.0476 6.91157 59.9799 3.18655 59.9001C2.27926 59.8803 1.3702 59.9167 0.461728 59.9109C-0.0580702 59.9077 -0.192136 60.7911 0.336482 60.9156C4.08973 61.7996 7.85708 61.9555 11.6874 61.799C15.4853 61.6438 19.2721 61.1494 22.9847 60.2571C30.2631 58.5083 37.2745 55.208 43.054 50.0376C46.0893 47.3231 48.5801 44.0944 50.8545 40.6268C53.2365 36.9956 55.4721 33.1812 58.5409 30.169C64.2581 24.5573 72.1732 23.3507 79.1887 20.6413C82.6997 19.2853 86.1131 17.5052 88.8785 14.7421C91.8103 11.8123 93.8877 7.83883 94.7356 3.61308C94.8409 3.08933 94.9697 2.52981 94.9967 1.99393C95.0226 1.48806 94.9061 0.944513 94.8285 0.444397Z" fill="#AFB3B7"/>
</svg>
