<svg width="50" height="87" viewBox="0 0 50 87" fill="none" xmlns="http://www.w3.org/2000/svg">
<path fill-rule="evenodd" clip-rule="evenodd" d="M0.175031 60.4544C0.380711 62.0808 0.837137 63.6082 1.26005 65.1572C1.34903 65.4828 1.40276 65.8365 1.4952 66.1627C1.61999 66.6046 1.80776 67.1037 2.01864 67.5005C2.23067 67.9007 2.33929 68.3722 2.5571 68.7643C2.75238 69.1161 2.98522 69.4585 3.20477 69.7921C3.5624 70.3362 3.87553 70.659 4.37529 71.0249C4.98424 71.4709 5.49555 71.8522 6.18481 72.128C6.85731 72.3977 7.52635 72.7064 8.18903 73.0071C8.66799 73.2243 9.19258 73.4342 9.60279 73.7994C9.84545 74.0166 9.71257 74.1471 9.5739 74.4518C9.2001 75.2764 9.12614 76.2436 8.84016 77.1133C8.63794 77.7267 8.47444 78.3724 8.30054 78.9992C7.99433 80.1023 7.43391 81.0621 7.11152 82.155C6.94744 82.7113 6.85558 83.2857 6.6551 83.8278C6.42573 84.4486 6.22294 85.0781 6.01033 85.7057C5.91327 85.9929 5.84047 86.2948 5.72665 86.572C5.67812 86.6903 5.58973 86.7892 5.59088 86.9271C5.85665 87.0219 6.43151 87.0172 6.7279 86.9533C7.15601 86.8612 7.18606 86.2424 7.26521 85.8045C7.57488 84.0968 7.74474 82.4651 8.4496 80.8912C8.85229 79.9926 9.322 79.1371 9.72123 78.2365C10.31 76.9081 10.8421 75.567 11.6319 74.3664C12.4055 73.19 13.3345 72.0708 14.2745 71.0693C14.6743 70.6436 15.1053 70.1492 15.6276 69.9891C16.6086 69.6885 17.596 69.1625 18.625 68.9217C19.7793 68.6513 20.877 68.0164 22.0597 67.9633C22.7293 67.9337 23.4186 67.9861 24.0905 67.9875C25.6764 67.9909 27.2624 67.9673 28.8477 67.9855C29.66 67.9942 30.4643 68.0877 31.265 67.8698C32.7909 67.4541 34.3832 66.5939 35.8368 65.9119C38.5776 64.6252 41.2041 62.972 43.8982 61.5568C43.0321 61.7808 42.0771 61.3389 41.2099 61.2615C38.6967 61.0382 36.2198 60.9152 33.7008 60.9266C30.9328 60.9387 28.1186 60.9522 25.4234 61.7929C22.9731 62.557 21.1821 64.5889 19.1016 66.2125C17.8618 67.1811 16.6317 67.8631 15.3208 68.6493C14.6079 69.0778 14.0474 69.8365 13.4131 70.3214C13.7349 69.7793 13.9434 69.252 14.2156 68.6964C14.754 67.596 15.4976 66.6127 16.2406 65.6933C16.5341 65.3301 16.8322 64.9682 17.1147 64.5922C17.4764 64.1113 17.7011 63.5181 18.0461 63.0224C18.4667 62.4184 18.8462 61.7963 19.3027 61.2246C19.5609 60.9017 19.8174 60.5533 20.0416 60.2002C20.1647 60.0051 20.2213 59.7684 20.3467 59.5733C20.4934 59.344 20.639 59.2108 20.7563 58.9566C20.9435 58.549 21.1885 58.2248 21.3953 57.8367C21.5958 57.4614 21.787 57.0155 22.0487 56.6906C22.2608 56.429 22.5479 56.2985 22.7998 56.0987C23.2961 55.7032 23.8045 55.3266 24.332 54.9896C25.2743 54.3876 25.7053 53.1198 26.5922 52.4344C27.7142 51.5674 29.1406 51.1625 30.336 50.4482C31.8902 49.5187 33.3605 48.3921 34.9124 47.4485C36.4469 46.5149 38.1755 46.1941 39.6557 45.1273C40.5091 44.5119 41.3208 43.7929 42.1314 43.1028C43.0962 42.2816 44.1841 41.5956 45.1005 40.7044C46.182 39.6524 46.8574 38.0375 47.7142 36.7549C48.2417 35.9653 48.8795 35.2173 49.3452 34.3766C48.4237 34.799 47.2641 35.1178 46.2698 35.2933C45.2166 35.4783 44.3424 35.5698 43.3192 35.9484C42.1938 36.3648 40.9909 36.535 39.8874 37.032C38.2737 37.7584 36.7895 38.7781 35.2891 39.7466C33.9626 40.6021 32.4841 40.9102 31.2795 42.0926C30.6006 42.7598 30.1037 43.6019 29.515 44.3572C28.7322 45.3614 27.7055 46.1988 26.9533 47.2184C26.3616 48.0202 25.9607 49.3136 25.4632 50.2149C24.9086 51.2184 24.41 52.2367 23.7964 53.1958C23.533 53.6074 23.1921 54.2706 22.7796 54.7206C23.299 53.2214 23.7207 51.6771 24.0264 50.1335C25.387 47.6274 26.6702 45.0009 27.7592 42.3421C28.8679 39.6356 30.4128 37.18 31.7267 34.6006C32.7152 32.6595 33.9672 31.1064 35.255 29.4781C36.158 28.336 36.7889 26.9989 37.503 25.6873C38.5251 23.8108 39.7464 22.0991 40.776 20.2286C42.4468 17.1931 43.2216 13.6297 44.0732 10.1982C44.6238 7.97928 45.1698 5.76039 45.6199 3.51056C45.7938 2.63888 45.8885 1.03138 46.2987 0.000283638C46.0231 0.415276 45.6499 0.757626 45.3148 1.08317C43.8092 2.54942 42.2267 3.87107 40.8343 5.49471C38.5147 8.20056 36.1528 10.9864 34.7552 14.4839C33.6517 17.2436 33.1733 20.2292 32.7504 23.2109C32.4951 25.0107 32.279 26.8469 31.8197 28.5977C31.4979 29.8238 30.9525 30.9114 30.4978 32.0689C29.9079 33.5708 28.9696 34.838 28.4115 36.3493C27.9863 37.5008 27.7251 38.8312 27.5431 40.0587C27.3912 41.0844 27.3796 41.7772 26.8926 42.6905C26.5864 43.2656 26.4529 43.8723 26.182 44.4642C25.6787 45.5618 24.8583 46.3266 24.3534 47.3731C24.2251 46.9709 24.3384 46.5882 24.3095 46.1685C24.2615 45.4576 24.061 44.7722 24.005 44.0546C23.7525 40.8147 23.0696 37.6622 22.7299 34.4391C22.3416 30.7553 21.6368 27.157 20.6107 23.6306C20.2069 22.2416 19.7273 20.8864 19.2842 19.5149C19.0167 18.8605 18.8503 18.1751 18.7856 17.4575C18.833 17.1333 18.7723 16.8508 18.6042 16.61C18.0177 17.1905 17.8329 18.3998 17.6497 19.1874C17.2684 20.8252 16.8287 22.4582 16.5526 24.1263C16.2053 26.2268 15.924 28.295 15.9194 30.4312C15.9165 31.9674 16.1863 32.9514 16.7132 34.3477C17.1991 35.6364 17.9126 36.7118 18.4522 37.975C19.1634 39.6417 19.1403 41.4375 19.658 43.1688C19.8995 43.8299 20.1029 44.5065 20.2675 45.1993C20.3998 45.925 20.5073 46.6548 20.5887 47.39C20.8782 48.0733 21.6044 48.3982 21.9973 49.0614C22.4179 49.7716 22.9269 50.6003 22.8703 51.474C22.8258 52.1479 22.5496 52.8501 22.363 53.5254C21.8234 55.0407 21.2399 56.5312 20.4888 57.9477C19.8238 59.2021 19.0531 60.3845 18.1766 61.4452C17.648 60.1296 16.6473 58.8967 15.8928 57.7176C14.7257 55.8936 13.9515 53.8509 13.037 51.854C12.2795 50.2007 11.4256 48.5347 10.9357 46.7766C10.7496 46.1087 10.3354 45.6748 10.0055 45.1065C9.52306 44.2745 9.06432 43.4015 8.6807 42.5029C8.29245 41.5942 7.79674 40.6371 7.58932 39.6444C7.42987 38.8823 7.54831 38.2413 7.28774 37.4746C6.87754 36.2673 6.12242 35.3862 5.8578 34.0894C5.70123 33.3233 5.67755 32.383 5.3072 31.701C4.44867 32.8922 4.46773 35.3942 4.34871 36.8887C4.1517 39.3578 3.97607 41.8283 4.07197 44.3095C4.15401 46.4355 4.87967 48.8878 5.76536 50.7778C6.68052 52.729 8.434 54.2423 9.56986 56.0288C10.5341 57.5468 11.8456 58.6963 12.8394 60.1861C13.4489 61.0995 13.6239 61.7297 13.6112 62.8798C13.5899 64.7826 13.7175 66.5542 13.2253 68.4038C12.8734 69.7282 12.1472 70.8797 11.7561 72.1845C11.6434 72.5584 11.6163 73.0757 11.3274 73.3138C10.7693 72.9042 9.90727 71.4554 9.59932 71.035C7.72394 68.4711 6.06637 65.5487 4.45906 62.7628C2.3728 59.1483 0.744119 55.4981 0.305029 51.1269C0.464487 52.1795 0.117257 54.2101 0.0756584 54.9936C-0.0231356 56.8352 -0.0560682 58.6223 0.175031 60.4544Z" fill="#21825C"/>
</svg>
