<svg width="84" height="58" viewBox="0 0 84 58" fill="none" xmlns="http://www.w3.org/2000/svg">
<path fill-rule="evenodd" clip-rule="evenodd" d="M10.5234 57.3268C13.9135 57.0507 17.2853 56.451 20.5834 55.556C26.9897 53.8173 33.1582 50.7518 38.1685 46.0206C40.8084 43.5272 42.9493 40.5693 44.8455 37.3891C46.9009 33.9418 48.8112 30.3407 51.7194 27.6371C57.2245 22.5189 64.6475 21.0166 71.0815 17.8018C74.4362 16.1259 77.6635 13.8637 80.1607 10.8796C82.4644 8.12671 84.6454 4.21169 83.8227 0.357536C83.7183 -0.130641 83.0506 -0.107577 82.9339 0.357536C82.5257 1.98927 82.1825 3.68123 81.5473 5.23353C80.9304 6.74099 80.0634 8.12415 79.0542 9.35164C76.8667 12.0129 74.0894 14.038 71.1611 15.6146C64.9784 18.9422 57.9723 20.3254 52.2514 24.6875C49.2223 26.9971 46.9746 30.0472 44.9457 33.3729C42.9841 36.5883 41.1192 39.8236 38.5931 42.5649C34.0925 47.4499 28.3733 50.6269 22.3516 52.6898C18.8394 53.8929 15.2382 54.6406 11.5998 55.2216C7.8971 55.8129 4.13898 56.1826 0.400324 56.3344C-0.137562 56.3562 -0.129305 57.1929 0.400324 57.2352C3.7739 57.5055 7.14807 57.6016 10.5234 57.3268Z" fill="#AFB3B7"/>
</svg>
