<svg width="36" height="24" viewBox="0 0 36 24" fill="none" xmlns="http://www.w3.org/2000/svg">
<path fill-rule="evenodd" clip-rule="evenodd" d="M0.21167 22.0853C2.81657 23.5936 5.94992 24.0937 8.82266 23.2798C11.5257 22.5136 13.7646 20.7091 15.5775 18.4464C17.4011 16.1686 18.8366 13.5712 20.4719 11.1391C22.2173 8.54295 24.2661 6.30833 26.9288 4.83994C28.4961 3.97564 30.1344 3.51342 31.8395 3.09827C33.3821 2.723 35.107 2.27451 35.9497 0.678632C36.12 0.356972 35.8353 -0.107211 35.485 0.0222373C34.1693 0.509957 32.8789 1.01402 31.5157 1.33241C30.0706 1.67042 28.6562 2.00907 27.2851 2.62624C24.6224 3.82527 22.3383 5.75065 20.4972 8.14937C17.2302 12.4055 15.0581 18.1653 10.3502 20.8588C7.39923 22.5469 3.6941 22.7247 0.626962 21.3132C0.154492 21.0962 -0.268625 21.8068 0.21167 22.0853Z" fill="#AFB3B7"/>
</svg>
