<svg width="53" height="38" viewBox="0 0 53 38" fill="none" xmlns="http://www.w3.org/2000/svg">
<path fill-rule="evenodd" clip-rule="evenodd" d="M0.429932 37.0876C5.58931 37.6831 10.7868 38.1212 15.9087 36.9518C19.9998 36.0184 23.9975 34.0547 27.0292 30.877C28.5612 29.2715 29.7867 27.3754 30.6725 25.2739C31.6445 22.9678 32.3764 20.5182 33.9383 18.5761C36.7334 15.0994 40.8251 13.4066 44.4613 11.2337C46.4505 10.0453 48.3893 8.65791 49.9934 6.89819C51.5647 5.17353 52.91 3.04465 52.9998 0.559994C53.0257 -0.150909 52.154 -0.164936 51.9415 0.404424C51.2061 2.37646 50.2922 4.19229 48.8911 5.70081C47.4689 7.23292 45.7779 8.43603 44.0311 9.48421C40.5293 11.587 36.7105 13.1592 33.7158 16.1335C32.1035 17.7345 30.9965 19.6785 30.1236 21.838C29.2467 24.0051 28.4314 26.1754 27.0169 28.0091C24.4794 31.2971 20.8779 33.4981 17.1178 34.6859C11.7459 36.3825 5.96966 36.2977 0.429932 36.1166C-0.156441 36.0975 -0.130028 37.0232 0.429932 37.0876Z" fill="#AFB3B7"/>
</svg>
