<svg width="179" height="100" viewBox="0 0 179 100" fill="none" xmlns="http://www.w3.org/2000/svg">
<path fill-rule="evenodd" clip-rule="evenodd" d="M178.718 0.000520297C177.458 0.0754141 176.551 0.744034 175.627 1.67666C174.407 2.90921 173.091 3.99963 171.892 5.26354C169.329 7.96229 166.806 10.7951 164.613 13.8984C163.562 15.3874 162.571 16.9401 161.704 18.5788C160.827 20.2362 160.169 22.024 159.212 23.6283C157.365 26.7266 154.864 29.2413 152.496 31.8005C151.268 33.1286 150.214 34.6626 148.934 35.927C147.635 37.2096 146.143 38.1994 144.842 39.4881C143.634 40.6847 141.964 40.8349 140.676 41.9127C139.444 42.9434 138.175 43.8745 137.131 45.1592C136.578 45.8394 136.022 46.3938 135.295 46.8211C134.548 47.2596 133.804 47.644 133.166 48.2843C132.552 48.8998 132.067 49.6605 131.466 50.2922C130.721 51.0756 129.889 51.7508 129.043 52.3835C127.68 53.4041 126.251 54.4627 124.677 54.9953C123.851 55.275 122.999 55.5061 122.148 55.6654C121.122 55.8581 120.085 55.7969 119.054 55.9375C118.19 56.0554 117.336 56.2582 116.472 56.3755C115.576 56.4974 114.7 56.4413 113.802 56.4347C112.209 56.423 110.94 57.4083 109.407 57.7067C107.62 58.0546 105.817 58.1796 104.03 58.5543C102.202 58.9377 100.336 58.7602 98.4911 58.9008C96.7314 59.0348 94.9859 59.3443 93.2532 59.7095C92.3972 59.8896 91.5359 60.0575 90.6972 60.327C89.8231 60.6082 88.964 60.9845 88.0568 61.1034C84.4355 61.5758 80.7189 60.6492 77.1095 61.381C75.4558 61.7164 73.7995 61.7518 72.1454 62.1013C71.3693 62.2651 70.5702 62.2398 69.8065 62.4786C69.0468 62.7163 68.329 63.1386 67.6716 63.6297C66.4082 64.5734 65.3703 66.1327 63.7903 66.3072C62.2046 66.4822 60.5986 66.2986 59.0063 66.4852C55.5333 66.8924 51.9072 67.8902 48.6589 69.3534C47.2136 70.0048 45.8045 70.8044 44.3892 71.5418C42.863 72.3374 41.5457 73.5199 40.0722 74.4211C36.9449 76.3334 33.3978 77.394 30.1451 79.0024C28.577 79.7772 27.0518 80.6471 25.5932 81.6657C24.2159 82.6272 22.9776 83.8461 21.5791 84.7569C20.9791 85.1484 20.3571 85.4954 19.8141 85.9895C19.1003 86.6389 18.4959 87.4248 17.7719 88.0621C16.4008 89.2694 14.9206 90.3208 13.4037 91.2692C11.882 92.22 10.3109 93.0611 8.72205 93.8541C7.0944 94.6669 5.3811 95.8261 3.61924 96.1594C2.99679 96.2767 2.358 96.3409 1.80838 96.7268C1.23625 97.1274 0.924586 97.9715 0.303014 98.2664C-0.232474 98.5203 0.00033128 99.5338 0.545817 99.2759C1.0685 99.0286 1.38017 98.6503 1.75938 98.1784C2.3995 97.3818 3.11245 97.3307 3.99316 97.1492C5.57004 96.8235 7.12839 95.7876 8.58917 95.0619C11.8233 93.4546 15.0031 91.7046 17.8576 89.3088C19.1418 88.2315 20.1748 86.872 21.5755 85.9814C22.9705 85.0943 24.1978 83.9381 25.546 82.963C28.5739 80.7735 31.8902 79.3003 35.2272 77.8568C36.8345 77.1614 38.4736 76.5009 40.0298 75.6618C41.5391 74.848 42.8427 73.6231 44.3344 72.7714C47.4432 70.9971 50.6627 69.5501 54.0505 68.6534C55.8357 68.1805 57.6404 67.7152 59.472 67.5665C61.0127 67.4411 62.594 67.6728 64.1228 67.4492C65.569 67.2383 66.4691 66.1221 67.5966 65.1859C68.28 64.6184 69.0137 64.0919 69.8215 63.7925C70.6219 63.4956 71.4752 63.5341 72.3016 63.3783C74.0065 63.0556 75.7114 62.9879 77.4146 62.648C79.2007 62.2919 81.0628 62.4548 82.8701 62.4523C84.6602 62.4492 86.5104 62.6773 88.2903 62.4169C90.0133 62.165 91.6878 61.4094 93.4033 61.0483C95.2534 60.6593 97.1137 60.3361 98.9948 60.233C100.734 60.1374 102.466 60.2471 104.192 59.9143C105.091 59.7409 105.961 59.5112 106.873 59.4197C107.725 59.3342 108.579 59.2801 109.426 59.1436C111.058 58.8801 112.427 57.87 114.101 57.9449C115.903 58.0253 117.594 57.6344 119.381 57.5084C120.265 57.4457 121.146 57.52 122.03 57.4123C122.961 57.2985 123.885 57.0987 124.796 56.8535C126.355 56.4342 127.709 55.5749 129.066 54.6261C130.577 53.569 132.09 52.4042 133.302 50.9128C133.893 50.186 134.429 49.5148 135.205 49.0414C135.945 48.5893 136.698 48.2378 137.357 47.6283C137.92 47.1074 138.378 46.4732 138.891 45.8915C139.468 45.2366 140.188 44.8461 140.826 44.2832C141.47 43.7162 142.065 43.1619 142.826 42.8124C143.495 42.5059 144.192 42.2905 144.831 41.9006C145.528 41.4757 146.046 40.8288 146.64 40.2497C147.328 39.5786 148.093 39.0243 148.821 38.4133C150.235 37.2253 151.364 35.7849 152.55 34.3181C153.626 32.9865 154.814 31.7787 155.934 30.4956C158.226 27.8686 160.312 25.0005 161.68 21.6098C163.153 17.9577 165.246 14.6935 167.578 11.7034C169.917 8.70475 172.401 5.77588 175.113 3.22076C176.26 2.13893 177.121 0.79815 178.718 0.672721C179.092 0.643387 179.097 -0.0211868 178.718 0.000520297Z" fill="#8CB6B2"/>
</svg>
