<svg width="50" height="87" viewBox="0 0 50 87" fill="none" xmlns="http://www.w3.org/2000/svg">
<path fill-rule="evenodd" clip-rule="evenodd" d="M49.1702 26.5456C48.9645 24.9192 48.5081 23.3918 48.0852 21.8428C47.9962 21.5172 47.9424 21.1635 47.85 20.8373C47.7252 20.3954 47.5374 19.8963 47.3266 19.4995C47.1145 19.0993 47.0059 18.6278 46.7881 18.2357C46.5928 17.8839 46.36 17.5415 46.1404 17.2079C45.7828 16.6638 45.4697 16.341 44.9699 15.9751C44.361 15.5291 43.8497 15.1478 43.1604 14.872C42.4879 14.6023 41.8189 14.2936 41.1562 13.9929C40.6772 13.7757 40.1526 13.5658 39.7424 13.2006C39.4998 12.9834 39.6326 12.8529 39.7713 12.5482C40.1451 11.7236 40.2191 10.7564 40.505 9.88674C40.7073 9.27334 40.8708 8.62765 41.0447 8.00079C41.3509 6.89773 41.9113 5.93794 42.2337 4.84497C42.3978 4.28874 42.4896 3.71434 42.6901 3.17223C42.9195 2.55143 43.1223 1.92188 43.3349 1.29435C43.4319 1.00715 43.5047 0.705154 43.6185 0.428045C43.6671 0.309669 43.7555 0.210797 43.7543 0.0729154C43.4886 -0.0219204 42.9137 -0.0172123 42.6173 0.0466842C42.1892 0.13883 42.1591 0.757617 42.08 1.19548C41.7703 2.90319 41.6005 4.53491 40.8956 6.10878C40.4929 7.00737 40.0232 7.86291 39.624 8.76351C39.0352 10.0919 38.5031 11.433 37.7133 12.6336C36.9397 13.81 36.0107 14.9292 35.0707 15.9307C34.6709 16.3564 34.2399 16.8508 33.7176 17.0109C32.7366 17.3115 31.7492 17.8375 30.7202 18.0783C29.5659 18.3487 28.4682 18.9836 27.2855 19.0367C26.6159 19.0663 25.9266 19.0139 25.2547 19.0125C23.6688 19.0091 22.0828 19.0327 20.4975 19.0145C19.6852 19.0058 18.8809 18.9123 18.0802 19.1302C16.5543 19.5459 14.962 20.4061 13.5084 21.0881C10.7676 22.3748 8.14111 24.028 5.44705 25.4432C6.3131 25.2192 7.26812 25.6611 8.13533 25.7385C10.6485 25.9618 13.1254 26.0848 15.6444 26.0734C18.4124 26.0613 21.2266 26.0478 23.9218 25.2071C26.3721 24.443 28.1631 22.4111 30.2436 20.7875C31.4834 19.8189 32.7135 19.1369 34.0244 18.3507C34.7373 17.9222 35.2978 17.1635 35.9321 16.6786C35.6103 17.2207 35.4018 17.748 35.1296 18.3036C34.5912 19.404 33.8476 20.3873 33.1046 21.3067C32.8111 21.6699 32.513 22.0318 32.2305 22.4078C31.8688 22.8887 31.6441 23.4819 31.2991 23.9776C30.8785 24.5816 30.499 25.2037 30.0425 25.7754C29.7843 26.0983 29.5278 26.4467 29.3036 26.7998C29.1805 26.9949 29.1239 27.2316 28.9985 27.4267C28.8518 27.656 28.7062 27.7892 28.5889 28.0434C28.4017 28.451 28.1567 28.7752 27.9499 29.1633C27.7494 29.5386 27.5582 29.9845 27.2965 30.3094C27.0844 30.571 26.7973 30.7015 26.5454 30.9013C26.0491 31.2968 25.5407 31.6734 25.0132 32.0104C24.0709 32.6124 23.6399 33.8802 22.753 34.5656C21.631 35.4326 20.2046 35.8375 19.0092 36.5518C17.455 37.4813 15.9847 38.6079 14.4328 39.5515C12.8983 40.4851 11.1697 40.8059 9.68948 41.8727C8.83614 42.4881 8.0244 43.2071 7.21381 43.8972C6.24897 44.7184 5.16106 45.4044 4.24474 46.2956C3.16319 47.3476 2.4878 48.9625 1.63099 50.2451C1.10351 51.0347 0.465668 51.7827 0 52.6234C0.921515 52.201 2.08106 51.8822 3.07537 51.7067C4.12862 51.5217 5.00276 51.4302 6.02595 51.0516C7.15142 50.6352 8.3543 50.465 9.4578 49.968C11.0715 49.2416 12.5557 48.2219 14.0561 47.2534C15.3826 46.3979 16.8611 46.0898 18.0657 44.9074C18.7446 44.2402 19.2415 43.3981 19.8302 42.6428C20.613 41.6386 21.6397 40.8012 22.3919 39.7816C22.9836 38.9798 23.3845 37.6864 23.882 36.7851C24.4366 35.7816 24.9352 34.7633 25.5488 33.8042C25.8122 33.3926 26.1531 32.7294 26.5656 32.2794C26.0462 33.7786 25.6245 35.3229 25.3188 36.8665C23.9582 39.3726 22.675 41.9991 21.586 44.6579C20.4773 47.3644 18.9324 49.82 17.6186 52.3994C16.63 54.3405 15.378 55.8936 14.0902 57.5219C13.1872 58.664 12.5563 60.0011 11.8422 61.3127C10.8201 63.1892 9.59877 64.9009 8.56922 66.7714C6.89836 69.8069 6.12359 73.3703 5.27199 76.8018C4.72139 79.0207 4.17541 81.2396 3.72535 83.4894C3.55144 84.3611 3.45669 85.9686 3.04649 86.9997C3.32207 86.5847 3.6953 86.2424 4.0304 85.9168C5.53602 84.4506 7.11848 83.1289 8.51087 81.5053C10.8305 78.7994 13.1924 76.0136 14.59 72.5161C15.6935 69.7564 16.1719 66.7708 16.5948 63.7891C16.8501 61.9893 17.0662 60.1531 17.5255 58.4023C17.8473 57.1762 18.3927 56.0886 18.8474 54.9311C19.4373 53.4292 20.3756 52.162 20.9337 50.6507C21.3589 49.4992 21.6201 48.1688 21.8021 46.9413C21.954 45.9156 21.9656 45.2228 22.4526 44.3095C22.7588 43.7344 22.8923 43.1277 23.1632 42.5358C23.6665 41.4382 24.4869 40.6734 24.9918 39.6269C25.1201 40.0291 25.0068 40.4118 25.0357 40.8315C25.0837 41.5424 25.2842 42.2278 25.3402 42.9454C25.5927 46.1853 26.2756 49.3378 26.6153 52.5609C27.0036 56.2447 27.7084 59.843 28.7345 63.3694C29.1383 64.7584 29.6179 66.1136 30.061 67.4851C30.3285 68.1395 30.4949 68.8249 30.5596 69.5425C30.5122 69.8667 30.5729 70.1492 30.741 70.39C31.3275 69.8095 31.5123 68.6002 31.6955 67.8126C32.0768 66.1748 32.5165 64.5418 32.7926 62.8737C33.1399 60.7732 33.4212 58.705 33.4258 56.5688C33.4287 55.0326 33.1589 54.0486 32.632 52.6523C32.1461 51.3636 31.4326 50.2882 30.893 49.025C30.1818 47.3583 30.2049 45.5625 29.6872 43.8312C29.4457 43.1701 29.2423 42.4935 29.0777 41.8007C28.9454 41.075 28.8379 40.3452 28.7565 39.61C28.467 38.9267 27.7408 38.6018 27.3479 37.9386C26.9273 37.2284 26.4183 36.3997 26.4749 35.526C26.5194 34.8521 26.7956 34.1499 26.9822 33.4746C27.5218 31.9593 28.1053 30.4688 28.8564 29.0523C29.5214 27.7979 30.2921 26.6155 31.1686 25.5548C31.6972 26.8704 32.6979 28.1033 33.4524 29.2824C34.6195 31.1064 35.3937 33.1491 36.3083 35.146C37.0657 36.7993 37.9196 38.4653 38.4095 40.2234C38.5956 40.8913 39.0098 41.3252 39.3397 41.8935C39.8221 42.7255 40.2809 43.5985 40.6645 44.4971C41.0528 45.4058 41.5485 46.3629 41.7559 47.3556C41.9153 48.1177 41.7969 48.7587 42.0575 49.5254C42.4677 50.7327 43.2228 51.6138 43.4874 52.9106C43.644 53.6767 43.6677 54.617 44.038 55.299C44.8965 54.1078 44.8775 51.6058 44.9965 50.1113C45.1935 47.6422 45.3691 45.1717 45.2732 42.6905C45.1912 40.5645 44.4655 38.1122 43.5798 36.2222C42.6647 34.271 40.9112 32.7577 39.7753 30.9712C38.8111 29.4532 37.4996 28.3037 36.5058 26.8139C35.8963 25.9005 35.7213 25.2703 35.734 24.1202C35.7553 22.2174 35.6277 20.4458 36.1199 18.5962C36.4718 17.2718 37.198 16.1203 37.5891 14.8155C37.7018 14.4416 37.7289 13.9243 38.0178 13.6862C38.5759 14.0958 39.4379 15.5446 39.7459 15.965C41.6213 18.5289 43.2788 21.4513 44.8861 24.2372C46.9724 27.8517 48.6011 31.5019 49.0402 35.8731C48.8807 34.8205 49.2279 32.7899 49.2695 32.0064C49.3683 30.1648 49.4013 28.3777 49.1702 26.5456Z" fill="#AFB3B7"/>
</svg>
