<svg width="168" height="117" viewBox="0 0 168 117" fill="none" xmlns="http://www.w3.org/2000/svg">
<path fill-rule="evenodd" clip-rule="evenodd" d="M3.69041 26.641C3.90631 26.3897 4.01685 26.2234 4.15905 26.1022C4.6156 25.7132 5.07158 25.3204 5.54943 24.965C8.70442 22.6169 12.1409 20.8679 15.6465 19.2795C17.1705 18.5884 18.7422 18.0261 20.2702 17.3458C22.755 16.2391 25.3475 15.6222 27.9953 15.3512C30.3771 15.1075 32.775 15.0491 35.166 14.9146C35.2374 14.9108 35.3122 14.966 35.4775 15.0288C35.2328 15.1418 35.0843 15.2224 34.9282 15.2808C32.8965 16.0385 30.9563 17.0342 29.0236 18.0509C27.438 18.8848 25.8237 19.645 24.1213 20.1546C19.6905 21.4803 15.5153 23.4502 11.6596 26.2095C11.1841 26.5503 10.716 26.6721 10.1558 26.6569C8.35956 26.6086 6.56214 26.6124 4.76472 26.6017C4.45325 26.5998 4.1412 26.6239 3.69041 26.641ZM12.6683 26.6835C12.7892 26.5509 12.8353 26.4709 12.9009 26.4328C14.1525 25.7164 15.3834 24.9491 16.665 24.3037C19.1032 23.0745 21.645 22.16 24.2375 21.4016C25.3314 21.0818 26.4178 20.6864 27.4587 20.1984C29.3673 19.3036 31.2355 18.3041 33.1279 17.3668C35.1631 16.3596 37.2565 15.5251 39.4252 14.9451C40.0015 14.7909 40.6084 14.6988 41.2002 14.7052C47.7117 14.7725 54.1955 15.2389 60.6264 16.4225C60.8319 16.4599 61.0352 16.5126 61.2395 16.5576C61.2442 16.6198 61.2488 16.682 61.2539 16.7442C60.9517 16.8394 60.6494 16.9359 60.3466 17.0291C59.7904 17.1992 59.232 17.3642 58.6764 17.5381C56.6101 18.1854 54.6924 19.2554 52.6946 20.0969C51.1977 20.727 49.672 21.2836 48.1383 21.7964C46.562 22.3231 44.9528 22.7299 43.3701 23.2357C39.8259 24.3691 36.4004 25.8274 33.1423 27.7611C30.9747 29.0468 28.8336 30.37 26.8698 32.0168C26.4149 32.3982 25.948 32.7612 25.4742 33.1433C25.271 32.9827 25.0954 32.8513 24.9273 32.7092C24.2807 32.1647 23.6353 31.6189 22.9922 31.07C20.1073 28.6096 16.8636 27.1493 13.2187 26.8047C13.0615 26.7895 12.9078 26.7375 12.6683 26.6835ZM26.1127 33.6503C26.2537 33.5113 26.309 33.439 26.3787 33.3914C27.5434 32.5994 28.6758 31.7401 29.8831 31.0363C32.1135 29.7366 34.3732 28.4941 36.6474 27.2896C39.5945 25.7284 42.7201 24.7048 45.8734 23.8055C48.9282 22.9349 51.9352 21.9195 54.8242 20.5221C57.2843 19.3322 59.8054 18.3644 62.4307 17.7342C63.8159 17.4017 65.2017 17.1275 66.6134 17.6104C67.0607 17.7634 67.5363 17.8161 67.9986 17.9176C72.4115 18.8886 76.7963 19.9858 81.0641 21.5863C81.2777 21.6669 81.4862 21.7646 81.8201 21.9068C81.561 22.0204 81.4361 22.0946 81.3019 22.1302C79.7423 22.5477 78.1757 22.9336 76.6224 23.3772C73.5843 24.2441 70.6585 25.4587 67.88 27.0618C65.8344 28.2415 63.8522 29.5545 61.8337 30.7914C59.5717 32.1767 57.3114 33.5659 55.0292 34.91C53.1362 36.025 51.291 37.208 49.7262 38.8516C49.1216 39.4862 48.5373 40.1437 47.9333 40.7789C47.0674 41.6909 46.095 42.4537 45.1198 43.2444C44.9822 43.1327 44.8745 43.0597 44.7812 42.9683C43.0673 41.2777 41.0954 40.0599 38.9739 39.1156C36.6047 38.0615 34.1383 37.3444 31.6938 36.5505C30.9131 36.2973 30.1313 36.0453 29.3632 35.7502C28.1796 35.2965 27.1484 34.547 26.1127 33.6503ZM45.7657 44.0129C46.0519 43.7724 46.2643 43.5814 46.4888 43.4088C47.596 42.559 48.6726 41.668 49.6179 40.5993C51.2046 38.8059 53.0988 37.4961 55.0833 36.3106C58.1663 34.4696 61.2505 32.6279 64.2903 30.7019C67.7533 28.5074 71.3223 26.5928 75.1457 25.2893C76.3322 24.8844 77.5165 24.4649 78.7198 24.1292C80.3163 23.6837 81.9277 23.3017 83.538 22.9222C83.8397 22.8511 84.222 22.8086 84.4725 22.9526C84.876 23.1843 85.3113 23.2636 85.7189 23.4457C88.08 24.503 90.4358 25.5748 92.7917 26.6467C92.9212 26.7057 93.0341 26.8092 93.197 26.9215C92.9903 27.0732 92.8384 27.1988 92.6748 27.3029C90.9546 28.4033 89.213 29.4644 87.5152 30.6054C83.3624 33.3958 79.3646 36.4236 75.8037 40.1031C72.7599 43.2476 69.7004 46.3743 66.6825 49.5486C64.7751 51.554 63.0099 53.7079 61.5257 56.1232C61.3973 56.3327 61.2493 56.5275 61.1163 56.7198C60.9787 56.6785 60.8941 56.6627 60.8158 56.6278C58.5947 55.6257 56.4023 54.5545 54.2997 53.2719C53.1684 52.5821 52.1039 51.7799 51.2305 50.7278C49.4118 48.5352 47.6288 46.3064 45.7657 44.0129ZM61.8757 57.0745C61.9609 56.9051 62.0104 56.7763 62.083 56.6658C63.402 54.6554 64.8258 52.7395 66.4245 50.9918C69.9664 47.1206 73.6707 43.4411 77.5234 39.9558C82.6842 35.2876 88.4697 31.6481 94.2005 27.9267C94.6922 27.6075 95.1263 27.6456 95.5863 28.1374C95.4072 28.3672 95.2386 28.5486 95.1073 28.7593C94.7319 29.3597 94.2811 29.9283 94.0238 30.5877C93.2874 32.4718 92.5177 34.3554 91.9684 36.31C90.5873 41.2244 89.3287 46.1801 88.0022 51.1136C87.5336 52.8556 87.0649 54.6014 86.4996 56.3066C85.6688 58.8115 84.3619 61.0193 82.8823 63.1249C81.7147 64.7857 80.2869 66.0334 78.6133 66.9993C78.1844 67.2461 77.8642 67.2328 77.4941 66.9555C76.414 66.147 75.308 65.3791 74.2504 64.5363C70.6078 61.633 66.7999 59.0666 62.5436 57.388C62.3265 57.3024 62.1187 57.1894 61.8757 57.0745ZM79.1424 67.7995C79.4774 67.5907 79.6968 67.4498 79.9196 67.3146C81.0509 66.6293 82.1079 65.8239 82.9928 64.7857C85.1328 62.2765 86.803 59.4182 87.8019 56.1575C89.0967 51.931 90.2677 47.6581 91.4773 43.4005C92.5977 39.4596 93.5292 35.4482 95.101 31.676C95.4165 30.9189 95.7636 30.1936 96.2754 29.5767C96.3687 29.4644 96.4948 29.3851 96.633 29.2677C96.7072 29.4181 96.7665 29.5139 96.8045 29.6186C97.3607 31.1531 97.9301 32.6819 98.4649 34.2253C99.9302 38.4531 100.95 42.8116 101.58 47.2831C102.076 50.8115 102.814 54.2803 103.787 57.685C104.922 61.6583 106.451 65.4533 108.114 69.188C108.852 70.8463 109.64 72.4658 110.756 73.8569C111.919 75.3063 113.107 76.731 114.284 78.1659C114.438 78.3538 114.596 78.5384 114.836 78.8234C114.554 78.9287 114.399 79.0017 114.237 79.0436C111.794 79.6826 109.356 79.6185 106.926 78.956C105.121 78.4635 103.461 77.5922 101.859 76.5737C100.226 75.5361 98.5922 74.4978 96.96 73.4571C95.014 72.2158 92.9414 71.3457 90.7346 70.8704C88.654 70.4224 86.5704 69.9915 84.4915 69.5371C82.914 69.1925 81.3543 68.7711 79.8471 68.1416C79.6404 68.0552 79.4418 67.9455 79.1424 67.7995ZM111.219 72.4633C110.861 72.0025 110.573 71.46 110.327 70.9142C109.047 68.0851 107.755 65.2623 106.683 62.3241C105.216 58.3019 104.089 54.1737 103.427 49.8971C103.121 47.9209 102.838 45.9402 102.532 43.964C101.972 40.3423 100.988 36.8513 99.8116 33.4225C99.4632 32.4077 99.0614 31.4146 98.6889 30.41C98.6129 30.205 98.5588 29.9899 98.4805 29.7347C99.99 30.1073 112.207 38.3915 112.981 39.5205C112.782 39.8879 112.524 40.2262 112.4 40.6158C111.939 42.0799 111.692 43.5985 111.887 45.1432C112.115 46.9493 112.592 48.6957 113.228 50.3794C114.357 53.3684 115.821 56.1753 117.149 59.0558C117.789 60.4443 118.497 61.7916 118.914 63.295C119.322 64.7622 119.793 66.2079 120.21 67.6719C120.396 68.3231 120.598 68.9888 120.651 69.6614C120.971 73.7096 119.431 76.514 115.874 78.3334C114.312 76.37 112.749 74.4318 111.219 72.4633ZM103.062 29.809C102.899 29.7043 102.744 29.5843 102.584 29.472C102.592 29.4225 102.6 29.373 102.608 29.3235C102.814 29.3299 103.02 29.3273 103.226 29.3445C103.972 29.4054 104.717 29.5126 105.465 29.5317C110.672 29.6656 115.831 30.3859 120.989 31.0833C126.567 31.8379 132.014 33.3146 137.434 34.9126C138.238 35.1499 139.023 35.4767 139.805 35.7978C141.309 36.4166 142.805 37.0607 144.305 37.6934C144.56 37.8007 144.816 37.9029 145.113 38.0247C144.923 38.7494 144.595 39.3358 144.096 39.7451C143.483 40.2477 142.833 40.718 142.149 41.0899C140.86 41.7918 139.468 41.8171 138.065 41.682C135.28 41.4142 132.573 40.7548 129.903 39.8479C127.695 39.0978 125.467 38.4124 123.229 37.7829C122.135 37.4751 121.002 37.2784 119.877 37.1749C118.23 37.0239 116.578 37.022 115.067 37.9727C114.965 38.0368 114.781 37.9923 114.654 37.9416C114.517 37.8864 114.403 37.7645 114.28 37.6706C110.628 34.898 106.901 32.2561 103.062 29.809ZM144.644 36.4261C142.106 35.1651 139.6 33.8159 136.902 32.9878C133.228 31.8594 129.528 30.8352 125.768 30.1314C119.79 29.0113 113.756 28.4154 107.704 28.0378C105.075 27.8734 102.446 27.7402 99.8167 27.5961C99.3654 27.5713 98.9422 27.485 98.6146 27.0821C98.6803 27.0015 98.7165 26.9405 98.766 26.8993C98.8507 26.8282 98.9428 26.7679 99.0338 26.7064C101.013 25.3629 103.143 24.3792 105.313 23.492C107.778 22.4843 110.077 21.1421 112.176 19.3982C112.877 18.8168 113.571 18.2184 114.212 17.5622C115.61 16.1312 116.687 14.4526 117.243 12.4098C117.332 12.4168 117.401 12.4053 117.455 12.4301C117.773 12.5723 118.09 12.7169 118.402 12.8731C121.081 14.2159 123.617 15.8386 126.069 17.625C128.026 19.0504 130.098 20.2212 132.294 21.1351C133.175 21.5019 134.05 21.8928 134.908 22.3206C137.533 23.6285 139.883 25.3743 141.824 27.7414C143.479 29.7595 144.596 32.0993 145.172 34.745C145.306 35.36 145.406 35.9876 145.296 36.7396C145.029 36.6114 144.835 36.5213 144.644 36.4261ZM115.883 12.8699C115.825 13.0222 115.759 13.1713 115.684 13.3148C115.015 14.617 114.22 15.8139 113.193 16.8032C111.296 18.6309 109.193 20.1248 106.909 21.2842C105.297 22.1029 103.634 22.801 102.001 23.5714C100.525 24.2682 99.0735 25.0196 97.7643 26.066C97.2041 26.5141 97.1926 26.5033 96.5322 25.9613C96.96 24.642 97.3428 23.2661 97.8472 21.9474C98.6584 19.8246 99.3469 17.6853 99.4373 15.3506C99.5323 12.8959 99.6504 10.4463 99.0602 7.91101C99.2888 7.9383 99.4373 7.93577 99.5755 7.97575C102.793 8.89847 106.067 9.48422 109.351 10.0224C111.386 10.3562 113.4 10.8099 115.354 11.541C116.148 11.8374 116.216 12.0024 115.883 12.8699ZM98.5271 8.45488C98.6826 10.7922 98.6117 13.1231 98.3786 15.4502C98.2652 16.5836 98.009 17.6701 97.6503 18.742C96.9323 20.8863 95.9127 22.9069 95.4625 25.163C95.4429 25.2601 95.3479 25.3394 95.2967 25.4143C94.9346 25.3331 94.8378 25.0303 94.7285 24.7518C94.0888 23.1278 93.4786 21.4898 92.8124 19.8792C92.049 18.0344 91.3213 16.1604 90.2654 14.4882C89.312 12.979 88.3281 11.4883 87.2901 10.0497C85.5945 7.70096 83.7747 5.47727 81.5702 3.67941C81.4551 3.58549 81.3612 3.4611 81.2576 3.35132C81.2795 3.29737 81.3008 3.24407 81.3227 3.19076C81.6145 3.22059 81.907 3.24407 82.1983 3.28024C84.6728 3.58295 87.1041 4.14522 89.502 4.86677C92.2701 5.69939 95.0232 6.59292 97.7838 7.4579C98.469 7.6724 98.4753 7.66732 98.5271 8.45488ZM80.2731 3.64451C81.3382 4.86741 82.5265 5.95894 83.6181 7.15583C85.2894 8.98922 86.8485 10.9349 88.1323 13.1256C88.7587 14.1943 89.4093 15.2573 89.9217 16.3933C90.7985 18.3352 91.5746 20.3329 92.395 22.3066C92.6691 22.9666 92.9495 23.624 93.231 24.2923C93.155 24.3209 93.1089 24.3577 93.0767 24.3469C92.8942 24.2834 92.7134 24.213 92.5349 24.1368C89.2573 22.7438 85.978 21.3572 82.7073 19.9471C82.3181 19.7789 81.9122 19.5524 81.6203 19.2351C80.7538 18.2914 79.9444 17.2836 79.1049 16.3095C78.1032 15.1469 77.1607 13.9075 76.0714 12.8528C73.9649 10.8131 71.8203 8.8128 69.6037 6.92038C67.416 5.05335 65.0497 3.47253 62.4837 2.28961C62.2891 2.20013 62.0991 2.09986 61.9068 2.00467C61.9183 1.95326 61.9304 1.90122 61.9419 1.84982C62.4244 1.92915 62.9103 1.98944 63.3887 2.09097C66.66 2.78461 69.9664 3.01243 73.2895 3.02513C75.129 3.03274 76.969 3.04226 78.8084 3.03338C79.3773 3.0302 79.8286 3.13491 80.2731 3.64451ZM60.3437 2.57899C63.4791 3.85837 66.318 5.74381 69.0499 7.83423C69.6452 8.28988 70.1714 8.85405 70.7247 9.3738C71.0666 9.69491 71.3896 10.042 71.7391 10.3517C74.4191 12.7252 76.7934 15.4363 79.0071 18.3257C79.0583 18.3917 79.0946 18.4716 79.1372 18.5452C79.1136 18.5858 79.0894 18.6265 79.0658 18.6671C78.3047 18.4412 77.5453 18.207 76.7819 17.9906C72.3211 16.7264 67.8023 15.7644 63.2546 14.9971C61.7508 14.7433 60.4992 14.1531 59.35 13.0914C56.4696 10.4323 53.2508 8.39078 49.7463 6.90008C48.1291 6.21279 46.509 5.53248 44.8843 4.86804C44.4911 4.70749 44.0719 4.62372 43.5244 4.46316C43.7553 4.37749 43.8445 4.32481 43.9378 4.31276C46.3691 3.99989 48.7336 3.37607 51.0624 2.54599C53.0481 1.8384 55.0988 1.50523 57.1899 1.52363C57.4138 1.52553 57.6441 1.59471 57.8589 1.67467C58.1594 1.78573 58.4409 1.95897 58.742 2.06495C59.2723 2.25026 59.8238 2.3664 60.3437 2.57899ZM45.1422 5.93229C47.505 6.79536 49.725 8.04302 51.9162 9.34017C54.0384 10.5961 55.9296 12.2327 57.8888 13.7571C57.9677 13.818 58.0299 13.9056 58.107 13.9887C58.0356 14.0388 58.0017 14.0839 57.9688 14.0821C57.7984 14.0744 57.628 14.0592 57.4582 14.0395C50.1418 13.2037 42.8145 12.854 35.4804 13.6454C33.767 13.8301 32.1901 13.6162 30.5982 12.9391C28.6666 12.1185 26.6481 11.7066 24.5617 11.8101C24.5041 11.8126 24.4448 11.7777 24.3867 11.7606C24.3751 11.7085 24.3636 11.6559 24.3521 11.6038C25.1161 11.1996 25.8795 10.7928 26.6447 10.3904C28.1502 9.59718 29.6724 8.84009 31.1589 8.00557C33.5545 6.6621 35.9951 5.47156 38.6802 5.0305C39.397 4.91247 40.1472 4.68527 40.8375 4.80902C42.2906 5.06985 43.7466 5.42206 45.1422 5.93229ZM24.3233 12.7487C25.9273 13.0285 27.5152 13.4201 29.1082 13.7748C29.2884 13.8148 29.4588 13.9056 29.6338 13.9728C29.6292 14.0357 29.6252 14.0985 29.6206 14.1613C23.4776 14.6189 17.8257 16.9492 12.2532 19.6292C12.3424 19.4477 12.4507 19.3118 12.5802 19.209C15.4439 16.9371 18.3116 14.6722 21.5869 13.1421C21.8224 13.0323 22.0434 12.8172 22.2818 12.795C22.9606 12.7322 23.6607 12.6325 24.3233 12.7487ZM0.0552663 28.2897C0.186532 28.6521 0.464033 28.7663 0.780107 28.7549C1.05646 28.7447 1.33511 28.6991 1.60628 28.6362C3.33519 28.2332 5.07964 28.1482 6.84137 28.2428C8.63648 28.3392 10.4345 28.3684 12.2302 28.4554C15.8463 28.6299 19.0992 29.9207 21.9738 32.3582C23.1794 33.3806 24.4022 34.3769 25.6066 35.4006C27.0177 36.5994 28.5889 37.4244 30.3023 37.9536C31.9517 38.4632 33.6006 38.9817 35.2282 39.57C36.6312 40.0764 38.0222 40.6361 39.3844 41.2625C41.5479 42.2576 43.4311 43.7197 45.0029 45.6496C46.3046 47.2475 47.6196 48.8328 48.896 50.4549C50.5356 52.5389 52.4839 54.1496 54.731 55.3566C57.1024 56.6297 59.4911 57.8621 61.9753 58.8349C66.0762 60.4405 69.7574 62.866 73.2694 65.6444C73.9309 66.1673 74.5895 66.6946 75.2504 67.2182C76.9034 68.5268 78.7106 69.5098 80.6721 70.0784C82.4914 70.6064 84.3418 71.01 86.1858 71.4314C87.6948 71.7766 89.2159 72.0571 90.7283 72.3846C92.7238 72.8168 94.5891 73.6348 96.3411 74.7637C97.9871 75.8242 99.6193 76.9106 101.26 77.9812C102.516 78.8005 103.816 79.5195 105.199 80.0513C108.03 81.1416 110.935 81.4259 113.87 80.8034C116.371 80.2728 118.589 78.9998 120.245 76.8402C122.038 74.5004 122.623 71.6922 121.975 68.7324C121.433 66.2593 120.66 63.8427 119.891 61.4394C119.523 60.2908 118.929 59.2303 118.436 58.1299C117.168 55.2951 115.722 52.5478 114.722 49.5791C114.217 48.0814 113.848 46.5139 113.563 44.9458C113.346 43.7553 113.597 42.5476 113.982 41.404C114.076 41.1229 114.24 40.8703 114.419 40.5092C114.725 40.7402 114.955 40.9065 115.178 41.0848C118.53 43.7597 121.74 46.6332 124.791 49.7105C126.098 51.0279 127.248 52.5377 128.445 53.9846C130.84 56.8791 133.275 59.7374 135.592 62.7067C140.44 68.9183 145.05 75.3412 149.153 82.1836C151.515 86.1233 153.608 90.2432 155.58 94.4355C157.168 97.8116 158.633 101.255 159.9 104.79C160.938 107.687 161.841 110.644 162.775 113.585C163.055 114.464 163.348 115.314 163.963 115.983C164.022 116.048 164.067 116.13 164.113 116.209C164.602 117.043 165.322 117.229 166.086 116.715C166.86 116.194 167.28 115.406 167.314 114.435C167.341 113.689 167.286 112.922 167.155 112.188C166.762 109.983 166.175 107.833 165.439 105.739C164.788 103.89 164.087 102.063 163.417 100.223C162.056 96.4872 160.306 92.9759 158.456 89.5134C153.724 80.6549 148.067 72.5375 142.065 64.707C138.802 60.4488 135.176 56.5592 131.425 52.8175C131.33 52.7223 131.234 52.6284 131.135 52.5383C127.661 49.3538 124.198 46.1547 120.707 42.9925C119.367 41.7791 117.964 40.6501 116.592 39.4811C116.428 39.3415 116.272 39.1905 116 38.9423C116.34 38.8522 116.553 38.778 116.77 38.7399C118.509 38.4359 120.24 38.5717 121.93 39.0471C124.295 39.7121 126.649 40.4312 128.987 41.2022C131.143 41.9136 133.295 42.6275 135.529 42.9791C137.076 43.2222 138.624 43.4589 140.195 43.3085C142.033 43.1327 143.623 42.3185 144.994 40.9928C146.158 39.8676 146.654 38.389 146.683 36.706C146.713 34.9195 146.248 33.2588 145.6 31.6475C143.78 27.1246 140.635 24.0239 136.759 21.7462C135.59 21.0596 134.357 20.4922 133.12 19.9642C130.732 18.9457 128.476 17.6619 126.329 16.1235C125.037 15.1983 123.711 14.3251 122.368 13.4905C118.238 10.9229 113.836 9.21451 109.128 8.51263C103.999 7.74728 98.9877 6.42983 94.0474 4.73858C91.9627 4.02464 89.8365 3.45539 87.7213 2.85568C83.6676 1.70576 79.5333 1.40813 75.365 1.47096C71.3562 1.53188 67.3653 1.33134 63.4049 0.556479C62.06 0.293749 60.6869 0.178249 59.3218 0.0722685C57.027 -0.105423 54.7407 0.0348262 52.4942 0.601536C51.4522 0.864266 50.428 1.22409 49.4089 1.58646C47.2569 2.3518 45.034 2.69513 42.8036 3.00989C41.2762 3.22566 39.7436 3.40907 38.2248 3.68512C36.3365 4.02908 34.5143 4.66116 32.7917 5.58262C30.1549 6.99336 27.5284 8.42823 24.9209 9.90243C22.5806 11.2256 20.2478 12.5691 17.9581 13.9938C16.4888 14.9083 15.0702 15.9332 13.6902 17.0044C11.5192 18.6887 9.28418 20.2568 7.00257 21.7488C5.43371 22.7749 3.97539 23.9617 2.61092 25.2982C1.92465 25.9708 1.18772 26.5813 0.474396 27.2204C0.407611 27.2801 0.341403 27.3391 0.277497 27.4019C0.0322372 27.645 -0.0736967 27.9324 0.0552663 28.2897Z" fill="#AFB3B7"/>
</svg>
