<svg width="122" height="83" viewBox="0 0 122 83" fill="none" xmlns="http://www.w3.org/2000/svg">
<path fill-rule="evenodd" clip-rule="evenodd" d="M22.2602 52.3047C23.7907 54.3977 25.4757 56.3491 27.1231 58.3337C24.9976 56.2853 22.6361 54.295 20.1523 53.0651C17.5083 51.7554 15.2935 49.8991 12.5079 48.8395C10.8 48.1901 9.04867 48.3406 7.30143 48.2736C8.42377 46.9397 9.59722 45.6524 10.7648 44.4033C12.0017 43.0803 13.3507 41.902 14.6363 40.6434C16.642 44.892 19.518 48.5556 22.2602 52.3047ZM118.533 0.765509C115.645 1.25671 112.726 1.41874 109.838 1.94312C103.991 3.0059 98.0988 3.94684 92.2845 5.2112C89.6216 5.79044 86.9599 6.46281 84.283 6.96039C81.1937 7.53516 78.0868 7.52878 75.0152 8.26431C69.0781 9.6856 63.2896 11.6931 57.578 13.9488C53.1779 15.6866 48.7349 17.5461 44.4587 19.6245C39.7919 21.8929 35.5392 24.918 30.9389 27.3287C28.8046 28.4463 26.5387 29.1882 24.3657 30.2006C20.577 31.9657 16.8975 34.4186 13.5322 36.9894C8.4502 40.8718 4.21218 45.801 0.0640162 50.7807L0 59.3627C0.585547 57.9171 1.56048 56.6764 2.37625 55.3788C3.11274 54.207 3.78579 52.9885 4.56163 51.846C4.91166 51.3312 5.28696 50.8317 5.66342 50.3328C6.93553 51.7867 8.50835 52.8954 10.0518 54.2765C12.9472 56.8671 15.485 59.8736 18.1602 62.715C19.2755 63.9002 20.5188 64.9285 21.8168 65.8657C24.1772 67.5689 26.4677 69.5331 29.09 70.7228C31.8198 71.9617 34.4439 73.434 37.1555 74.7105C37.811 75.0199 38.4911 75.3567 39.1823 75.6871C40.1684 76.7301 41.2156 77.7023 42.3585 78.5744C43.4491 79.4062 44.5885 80.1941 45.7432 80.9168C46.4121 81.336 47.3301 82.0626 48.1505 82.0703C49.7028 82.0849 49.1296 80.7631 48.608 79.736C47.5656 77.6845 46.7439 75.4862 45.648 73.4601C43.9284 70.2826 41.8293 67.5919 39.6845 64.7659C37.347 61.686 35.3848 58.2648 33.2405 55.0267C31.9003 53.0032 30.2276 51.2279 28.8046 49.2599C27.8502 47.94 26.9205 46.5614 25.6901 45.5318C24.6975 44.7013 23.9105 43.6825 22.9514 42.8079C22.01 41.9499 20.9429 41.7311 19.8786 41.1225C18.7657 40.4852 17.5523 39.8256 16.548 39.0008C16.5098 38.9695 16.4793 38.944 16.4423 38.9134C17.2129 38.3163 18.0509 37.8716 18.8738 37.2707C19.8199 36.5792 20.7625 35.8577 21.6958 35.1215C21.7416 35.7212 21.8068 36.3789 22.0687 36.8127C22.5673 37.6382 23.9816 38.3131 24.6793 38.9102C27.8878 41.6558 30.8701 44.7249 34.0498 47.517C36.7467 49.8857 39.4043 52.2887 42.2445 54.4564C44.7811 56.3925 47.5896 57.2613 50.3312 58.7566C52.412 59.8921 54.2574 61.3096 56.4128 62.3118C58.0338 63.0664 59.6518 63.8307 61.2645 64.6058C62.8791 65.3821 64.5159 66.0762 66.158 66.7785C66.8769 67.086 67.9793 67.8279 68.6558 67.8477C68.6476 67.0637 67.6774 66.4391 67.2234 65.9671C65.2882 63.9538 63.4018 61.9418 61.2463 60.2066C59.0715 58.4562 57.0618 56.5737 55.2658 54.3626C53.8962 52.6766 52.7028 50.9185 51.0301 49.5641C48.5863 47.5853 46.6053 45.2403 44.4217 42.991C43.6206 42.1661 42.7543 41.4415 41.9879 40.5783C41.2379 39.7337 40.6594 39.5743 39.7262 39.1003C38.8023 38.6301 38.0101 38.0649 37.0052 37.76C36.0144 37.4595 35.1939 36.8586 34.1943 36.6124C33.0285 36.3253 31.8386 36.3349 30.6822 35.9878C29.581 35.6574 28.6049 35.4418 27.472 35.3059C25.9068 35.119 24.5337 34.5193 23.0983 33.9982C23.7044 33.5057 24.3064 33.0107 24.899 32.5124C25.619 31.907 26.3261 31.6136 27.0867 31.1505C28.9244 30.0316 30.5377 28.868 32.5205 28.0259C33.8355 27.4671 35.1516 26.9121 36.466 26.3514C37.4004 28.9598 38.289 31.5951 39.2698 34.1819C40.0927 36.3508 41.417 37.9099 42.6439 39.7943C43.882 41.6973 45.1036 43.685 46.6652 45.313C48.6198 47.3493 50.8739 48.9958 53.0687 50.6914C56.0011 52.9573 58.6129 55.6595 61.9247 57.2728C65.5918 59.059 69.1727 60.0318 73.0883 60.9192C74.1707 61.1642 76.8611 62.5255 77.7814 61.3753C77.6569 60.9479 77.3233 60.9894 77.0514 60.7068C76.47 60.1052 75.9608 59.408 75.4199 58.7509C74.1243 57.1784 72.72 55.7456 71.2523 54.3632C67.7126 51.0301 64.1459 47.7435 60.6602 44.3427C56.0721 39.8671 52.2822 34.21 47.0276 30.6357C45.0102 29.2629 43.0615 27.6559 40.9912 26.3967C40.2959 25.9737 39.7056 25.6241 39.1083 25.4564C39.4384 25.4576 39.7802 25.538 40.1837 25.737C42.3027 26.7807 44.1885 27.9896 46.1308 29.3126C47.1339 29.9958 48.2674 29.9646 49.2694 30.7441C49.9136 31.2455 50.4246 32.0263 51.0606 32.4678C51.8987 33.0496 52.7979 33.387 53.6201 34.053C54.356 34.6495 55.1213 35.4979 55.8689 35.9866C57.3971 36.9843 58.7697 38.056 60.4693 38.655C61.7227 39.0965 63.2156 39.9443 64.3544 40.6268C65.3693 41.2348 66.5644 41.4931 67.6098 42.0819C68.5284 42.5993 69.091 43.0178 70.1159 43.2863C71.1196 43.5492 71.9982 44.0391 72.982 44.36C73.8247 44.6343 74.7292 44.7376 75.5949 44.8965C76.8053 45.1197 77.8202 45.6786 78.9948 45.9369C82.8076 46.7751 86.9675 46.9984 90.8561 46.9225C91.8005 46.904 93.5219 47.2855 94.3747 46.7445C94.6772 46.5525 94.693 46.106 95.0554 45.8993C94.451 45.373 93.5002 45.1318 92.823 44.7293C91.3929 43.879 89.9775 42.9674 88.6003 42.0213C84.7193 39.3548 80.6005 36.9849 76.4952 34.7516C73.5493 33.1485 70.3778 32.196 67.3097 30.917C63.938 29.5116 60.975 27.4224 57.7577 25.679C55.3791 24.3898 52.8766 23.6128 50.4469 22.4798C50.1345 22.3344 49.7216 22.0467 49.2952 21.8578C50.6378 21.7749 51.9216 21.4323 53.3335 21.7615C54.8212 22.1092 56.0093 22.1915 57.514 22.2119C59.2671 22.2355 60.8106 23.098 62.3834 23.8443C65.4662 25.3077 68.4526 26.5274 71.6905 27.5181C73.722 28.1395 75.6483 28.8795 77.7767 28.9662C79.753 29.0466 81.2924 29.1104 83.2094 29.6131C86.6827 30.5247 89.954 29.6998 93.4779 29.8466C97.6689 30.0213 101.557 30.3677 105.714 29.4957C108.078 29 110.527 28.653 112.87 28.0859C113.329 27.9742 115.294 27.5156 115.457 26.9229C114.181 25.5157 112.108 25.1884 110.418 24.844C107.848 24.3209 105.368 23.6332 102.838 22.9442C100.735 22.3714 98.7772 21.6945 96.7515 20.8754C94.3406 19.9013 91.7218 19.6232 89.2393 18.9285C85.7935 17.9646 82.7595 18.2032 79.2027 18.459C75.8791 18.6976 72.5051 18.1662 69.1756 18.1139C65.7598 18.0603 62.4116 17.5206 59.0058 17.2609C57.9827 17.1831 56.9308 17 55.9459 17.2565C56.8515 16.9535 57.8041 16.8074 58.7297 16.5733C61.1353 15.9634 63.6167 15.9073 66.0106 15.2151C67.4583 14.796 68.896 14.2181 70.3954 14.0701C71.3516 13.9763 72.3124 14.0886 73.2656 13.9246C75.0875 13.6101 76.3883 13.0475 78.2801 13.3243C80.6393 13.6707 83.1072 13.4315 85.5022 13.5648C87.8914 13.6975 90.1296 13.2388 92.4771 12.9448C94.0951 12.7425 95.5769 12.6226 97.1644 12.1454C98.1587 11.8462 99.1325 12.0153 100.153 11.9604C102.3 11.8443 104.146 10.1717 105.99 9.23204C106.773 8.83333 107.643 8.64387 108.426 8.25091C109.328 7.79926 110.005 6.99739 110.781 6.34352C112.228 5.12508 113.922 4.75381 115.528 3.88687C116.371 3.43267 117.126 2.82983 117.996 2.42666C118.616 2.1396 119.321 1.98203 119.925 1.65222C120.367 1.41109 122.034 0.475253 121.999 0C120.855 0.0963265 119.672 0.572218 118.533 0.765509Z" fill="#8CB6B2"/>
</svg>
