<svg width="70" height="53" viewBox="0 0 70 53" fill="none" xmlns="http://www.w3.org/2000/svg">
<path fill-rule="evenodd" clip-rule="evenodd" d="M33.9382 36.4161C32.7126 38.9071 31.3812 41.382 29.5742 43.4348C27.5401 45.7465 24.9759 47.2294 22.1788 48.1585C18.8103 49.2771 15.2749 49.7551 11.8023 50.3288C7.97536 50.9604 4.22414 51.0773 0.415535 50.271C0.0795691 50.1997 -0.185418 50.7291 0.166518 50.9135C3.22452 52.5159 6.81427 52.5737 10.1319 52.2782C13.4389 51.9833 16.7803 51.4275 20.024 50.6649C23.0814 49.9453 26.1495 48.8369 28.6846 46.7887C30.8477 45.041 32.5316 42.7512 33.9441 40.2756C36.8128 35.2474 38.6399 29.3435 42.6455 25.1736C47.1426 20.4917 53.4106 18.7589 58.8523 15.8021C61.724 14.2421 64.4851 12.2105 66.6227 9.58528C68.6296 7.12 70.3757 3.84518 69.9303 0.448274C69.8475 -0.183305 68.9455 -0.114557 68.816 0.448274C68.4936 1.85021 68.199 3.28941 67.6472 4.61232C67.1036 5.91531 66.3607 7.11743 65.4936 8.1917C63.6469 10.479 61.3295 12.2607 58.8718 13.6934C53.6886 16.7164 47.8323 18.3104 43.1098 22.2522C38.7369 25.9016 36.4733 31.2665 33.9382 36.4161Z" fill="#AFB3B7"/>
</svg>
