<svg width="89" height="42" viewBox="0 0 89 42" fill="none" xmlns="http://www.w3.org/2000/svg">
<path fill-rule="evenodd" clip-rule="evenodd" d="M88.4363 41.2553C87.6193 41.1438 86.7965 41.056 85.9832 40.9227C85.0578 40.7713 84.2393 40.4438 83.3743 40.1076C81.6294 39.4293 79.9016 38.7131 78.1478 38.056C76.5403 37.4539 74.7563 36.9199 73.3238 35.9701C72.0454 35.1227 71.0446 33.9114 70.0166 32.8061C68.9335 31.6402 67.7583 30.5526 66.5392 29.5215C65.2452 28.4273 63.8903 27.2993 62.3927 26.4746C61.0763 25.7493 59.5985 25.235 58.4133 24.3023C57.3885 23.4958 56.4517 22.7095 55.1718 22.3113C53.8528 21.9014 52.401 21.7904 51.0377 21.5951C49.1866 21.3301 47.3458 21.0162 45.4982 20.7351C42.2187 20.2354 38.8439 20.4691 35.5961 19.763C33.8954 19.3931 32.402 18.7072 30.9643 17.7593C29.5682 16.8398 28.2679 15.791 26.8719 14.8729C25.4248 13.9216 23.8766 13.1221 22.4525 12.1379C21.0512 11.1704 19.8832 9.94148 18.698 8.74331C17.3457 7.37657 15.8944 6.10169 14.4879 4.78794C13.1669 3.55394 11.7687 2.46933 10.1696 1.59367C9.30932 1.12228 8.4194 0.674604 7.47376 0.386923C6.67549 0.14416 5.87305 0.104793 5.04561 0.0583603C4.20724 0.0114228 3.34804 -0.0562077 2.51436 0.0830906C2.19464 0.136589 1.90459 0.232988 1.62548 0.392474C1.28388 0.588299 1.03914 0.865887 0.609544 0.780592C-0.000166052 0.659463 -0.265276 1.54976 0.350222 1.6931C0.937602 1.82987 1.38803 1.70521 1.89001 1.40693C2.56175 1.00771 3.2616 1.03395 4.02811 1.07988C4.76442 1.1243 5.54968 1.15407 6.27401 1.28832C7.21236 1.46245 8.08197 1.88842 8.90263 2.34719C11.8093 3.97032 14.0958 6.38584 16.4407 8.67618C17.7128 9.91775 18.8579 11.2805 20.2019 12.4529C21.4433 13.5365 22.8571 14.3995 24.2604 15.2686C27.1958 17.0846 29.7343 19.6429 33.0045 20.9016C36.1252 22.1033 39.5625 22.0392 42.8576 22.2865C44.6385 22.4208 46.3731 22.7741 48.1362 23.0375C49.8317 23.2914 51.535 23.5014 53.2279 23.7724C54.3438 23.9506 55.3119 24.2332 56.2268 24.8984C56.81 25.3223 57.3292 25.8154 57.9384 26.2086C58.6357 26.6593 59.3923 27.0141 60.1416 27.3745C63.1436 28.8189 65.7378 31.0275 68.0551 33.3567C69.2298 34.5377 70.2723 35.854 71.5981 36.8861C73.1301 38.0787 75.0719 38.6652 76.8991 39.2996C78.857 39.9794 80.7931 40.7143 82.7484 41.4002C84.661 42.0709 86.4404 42.1179 88.4363 41.8448C88.7373 41.8034 88.7378 41.2967 88.4363 41.2553Z" fill="#AFB3B7"/>
</svg>
