<svg width="80" height="90" viewBox="0 0 80 90" fill="none" xmlns="http://www.w3.org/2000/svg">
<path fill-rule="evenodd" clip-rule="evenodd" d="M70.8034 0.214094C70.1682 0.41461 68.4278 1.38804 66.9361 2.37682C63.9257 4.37295 61.8855 5.12033 56.5973 6.16412C47.5118 7.95733 38.1437 11.6344 34.5279 14.8262C33.2163 15.9841 29.8015 20.0284 27.7736 22.8252C25.1615 26.428 24.2804 27.3416 18.9604 31.9626C16.5619 34.0457 13.9432 36.5785 13.1413 37.5911C9.03106 42.7793 8.0627 44.0852 6.88184 46.0338C6.17494 47.1998 5.20868 49.2434 4.73411 50.5748C4.01293 52.5986 3.90785 53.3788 4.09298 55.3275C4.38456 58.3941 5.55763 61.1719 7.69891 63.8662C10.0726 66.8523 10.5674 67.3166 12.7091 68.5639C13.7294 69.1581 15.2044 68.9892 15.2607 69.1219C15.3174 69.2545 13.9982 70.7887 13.0553 71.5978C10.6414 73.6694 9.29219 75.1507 5.90618 79.4481C1.72818 84.7503 -0.237537 88.1105 0.02254 89.506C0.192629 90.42 1.36504 90.0096 2.13333 88.7666C2.5016 88.171 3.37544 86.535 4.07482 85.1308C5.57219 82.1254 7.38278 79.3975 9.23571 77.3562C9.96935 76.5483 11.1244 75.2525 11.8026 74.4766C14.1595 71.781 15.8848 70.0984 16.2589 70.1246C16.466 70.139 15.7417 72.6497 15.8611 74.5242C16.1199 78.5883 16.7189 80.1513 18.4756 81.3463C20.1834 82.508 21.9102 82.7805 25.9445 82.5254C32.6669 82.1003 40.4298 79.2601 45.267 75.4561C54.5816 68.1305 60.6143 61.5788 68.9074 49.7828C75.3233 40.6565 78.6433 33.1964 79.5271 25.9216C80.4013 18.7211 76.8183 5.45965 72.72 0.72827C71.986 -0.119018 71.9176 -0.137616 70.8034 0.214094ZM72.5168 15.0978C73.9196 16.5763 72.8477 18.1474 69.9456 18.8657C67.693 19.4234 64.2062 19.1782 63.2628 18.396C62.5541 17.8081 63.0364 16.7549 64.6431 15.3817C66.0927 14.1431 67.4582 13.5386 68.7703 13.5552C69.9739 13.5704 71.7689 14.3096 72.5168 15.0978ZM55.0677 10.8337C55.1668 11.1431 55.1478 12.3499 55.025 13.5149C54.9026 14.6801 54.924 16.9774 55.0729 18.6199C55.2952 21.0794 55.2341 21.7745 54.7252 22.558C53.9377 23.7712 53.0376 24.1391 51.9479 23.6933C50.1696 22.9658 50.1407 20.0033 51.8581 14.4484C52.7396 11.5963 53.0231 10.9775 53.6391 10.5586C54.4856 9.98273 54.8155 10.0463 55.0677 10.8337ZM77.4346 24.2201C76.8376 25.6794 72.2835 27.9142 69.0581 28.3307C66.9085 28.6081 62.3991 28.3168 61.1908 27.8225C59.8326 27.2669 58.5524 25.8811 58.6183 25.0375C58.6996 23.9937 60.8147 22.6687 63.0038 22.2904C65.1433 21.9207 67.1715 22.1382 70.9802 23.1457C72.6642 23.5916 74.2195 23.8064 74.8124 23.6757C76.6414 23.273 77.7296 23.4988 77.4346 24.2201ZM43.0562 16.2834C43.2404 17.8982 43.6838 20.3277 44.0415 21.6816C45.0992 25.6856 44.6027 26.7228 41.9417 26.0685C39.1686 25.3868 38.8671 24.332 39.6689 18.1198C40.1641 14.2852 40.478 13.3414 41.3812 12.9685C42.3996 12.548 42.6974 13.1368 43.0562 16.2834ZM63.8136 33.4177C64.5977 34.516 61.9321 35.1615 57.7462 34.8873C55.144 34.7167 54.0178 34.125 54.4209 33.1398C54.9237 31.9105 57.1401 31.3623 59.6194 31.8541C62.1576 32.3576 63.3827 32.8142 63.8136 33.4177ZM70.6009 42.1563C70.8614 42.6996 69.5306 43.6702 67.8857 44.1364C63.5173 45.3743 56.4453 45.8302 52.0588 45.1567C48.3778 44.5911 45.6798 42.4581 46.4045 40.6865C46.9519 39.3483 48.3395 38.3274 50.1263 37.9479C52.8928 37.3608 53.7792 37.473 63.7209 39.6693C65.7632 40.1206 67.7934 40.5803 68.2322 40.6908C69.198 40.9344 70.3596 41.653 70.6009 42.1563ZM33.3519 29.6057C34.9624 31.8545 35.7422 34.5744 36.1886 39.4997C36.5358 43.3297 35.7164 44.3309 33.0859 43.2921C31.6886 42.7407 31.6796 42.7259 31.171 40.2656C30.5018 37.0282 30.2606 33.2781 30.5573 30.7297C30.935 27.486 31.6329 27.2053 33.3519 29.6057ZM24.2862 38.9497C26.7144 45.9097 27.3752 50.1945 26.3912 52.6C25.6514 54.4083 24.9069 54.5749 22.3989 53.4949C19.9004 52.4192 19.1579 51.1875 18.9821 47.8267C18.7638 43.6522 19.043 41.9584 20.4693 38.8073C21.7294 36.0238 22.3239 35.4218 23.0995 36.1458C23.2696 36.3049 23.8038 37.5667 24.2862 38.9497ZM51.623 49.6762C53.3505 51.4575 53.07 52.3581 50.6229 52.8861C48.2844 53.391 44.9809 53.2151 41.3255 52.3915C35.9086 51.1709 35.5704 50.3674 39.7995 48.7646C42.9421 47.5737 44.4941 47.3464 47.1496 47.6882C49.5621 47.9988 50.3246 48.3375 51.623 49.6762ZM57.3982 60.1176C58.0548 61.6593 55.2864 63.402 51.8785 63.593C50.7564 63.656 48.2984 64.0106 46.4162 64.3814C38.5707 65.927 32.1874 65.1135 30.5286 62.3568C30.0666 61.5891 30.0806 61.2306 30.6226 59.9365C31.1756 58.6167 31.4535 58.3323 32.7409 57.7708C33.556 57.4151 34.6341 57.0873 35.1367 57.0422C36.8812 56.8849 40.5177 57.2934 45.0671 58.1575C47.6046 58.6394 50.9733 59.0261 52.6337 59.0263C55.8299 59.0265 57.0528 59.3067 57.3982 60.1176ZM13.4757 53.4456C14.6235 54.7711 16.1283 57.7267 16.7752 59.9263C17.7868 63.3665 16.2271 64.6593 13.0504 63.014C11.1255 62.0173 10.1278 60.7473 9.70774 58.7592C9.36867 57.1549 9.6344 53.9705 10.2284 52.5184C10.537 51.764 10.669 51.7271 11.6396 52.1241C12.2284 52.365 13.0544 52.9596 13.4757 53.4456ZM42.7319 73.6832C43.3054 75.4744 29.4639 75.4223 24.7928 73.6156C19.3616 71.5151 21.8363 67.9762 27.8667 69.2194C38.6958 71.4524 42.3712 72.5561 42.7319 73.6832Z" fill="#21825C"/>
</svg>
