<svg width="80" height="80" viewBox="0 0 80 80" fill="none" xmlns="http://www.w3.org/2000/svg">
<path fill-rule="evenodd" clip-rule="evenodd" d="M76.6925 20.5709C78.3599 22.9733 78.5138 23.4071 78.7704 26.426C78.9018 27.9706 79.2559 30.3822 79.5576 31.7856C80.2566 35.0385 80.1283 37.9183 79.1634 40.6172C78.3816 42.8046 78.0016 43.4674 77.6845 43.1959C77.5821 43.1083 76.863 41.527 76.0865 39.6823C74.0807 34.9166 72.3646 32.8188 68.3316 30.2018C66.4797 29.0001 64.5229 28.4927 64.0173 29.0833C63.5501 29.6291 64.19 30.7332 66.543 33.4418C70.3315 37.8034 70.9574 38.5974 71.9493 40.3006C73.2958 42.6136 74.9564 46.638 75.1912 48.1577C75.4939 50.1189 75.0909 51.0697 72.4879 54.5354C70.4941 57.19 69.7 58.5086 68.6654 60.8822C68.5469 61.1541 68.3631 61.2474 68.208 61.1147C67.7936 60.7599 65.2897 53.1116 63.9359 48.065C62.6125 43.1315 61.7091 40.8455 59.8755 37.7902C58.3597 35.2645 57.9633 34.9369 57.3256 35.6818C56.7127 36.3977 56.313 38.8113 56.6056 40.0275C56.9612 41.5047 57.8661 43.5617 59.704 47.071C63.0867 53.5292 64.4698 57.8131 64.5543 62.0944C64.6007 64.4352 64.3929 64.9719 62.862 66.4653C61.6369 67.6605 56.4953 70.9524 55.696 71.0533C55.0579 71.134 55.059 71.1392 54.4387 66.0032C53.0644 54.6223 50.0828 45.8205 47.5572 45.6871C45.1896 45.5615 48.0575 53.8583 48.2647 54.5141C50.2637 60.8397 51.4646 66.2488 51.7967 70.4257C52.0573 73.6998 50.9888 74.7985 46.2078 76.1729C44.6261 76.6278 42.4236 77.364 41.3131 77.8089C40.2025 78.2539 39.1927 78.5316 39.0693 78.426C38.946 78.3204 39.0082 77.4109 39.2076 76.4048C40.4198 70.2875 40.6409 66.199 40.2142 57.7651C39.9059 51.667 39.1734 49.31 37.5178 49.0894C36.6185 48.9697 36.4835 50.9879 36.9695 57.2792C37.5556 64.869 37.5729 68.6109 37.0408 72.6092C36.5743 76.1114 36.0855 77.5615 35.1563 78.1978C34.0571 78.9502 28.6675 79.8767 26.3963 79.7036C23.8403 79.5088 21.2556 78.8333 20.9642 78.284C20.7771 77.9316 21.0379 77.5811 23.0702 75.4516C25.7514 72.6429 26.5481 71.3184 27.8955 67.43C29.8243 61.8631 30.8981 53.477 29.7038 53.3051C29.1981 53.2323 27.7388 55.1863 26.9301 57.019C24.4945 62.539 23.2377 68.1462 20.2425 73.5414C19.3478 75.1512 17.652 76.528 15.8472 76.6856C12.3719 76.9881 8.87535 75.5052 6.1471 73.5907C3.15116 71.4884 2.48081 71.1759 1.58976 71.4672C1.25203 71.5775 0.911961 71.6133 0.834127 71.5467C0.756295 71.4801 0.79801 70.6403 0.927296 69.6809C1.06763 68.6374 0.96763 67.0367 0.678349 65.6968C0.0970062 63.0032 0.319881 62.3538 2.49708 60.4014C5.43828 57.7641 8.33897 56.1664 12.0141 55.1601C14.6061 54.4504 15.5278 54.0526 16.0824 53.4049C17.0391 52.2872 15.6282 51.6688 12.7215 51.9315C10.6267 52.1209 6.01088 54.0864 3.80747 55.7275C0.852206 57.9282 0.552373 58.1115 0.283772 57.8816C-0.0492209 57.5965 -0.102425 55.1525 0.195122 53.8154C0.366428 53.0456 0.811593 52.3615 2.18675 50.7552C3.87494 48.7832 4.05357 48.6448 6.01166 47.7892C8.28452 46.7967 12.1078 46.1557 16.6229 46.0103C24.1339 45.7689 27.4578 45.1448 27.916 43.8896C28.3439 42.7182 22.7775 40.8834 19.9312 41.2578C16.4298 41.7182 15.7616 41.8583 12.4466 42.8281C8.36044 44.0232 5.97909 45.0726 4.28267 46.4257C2.89831 47.5295 2.5181 47.6013 2.38369 46.7834C2.26689 46.0736 3.44516 42.0254 4.32226 40.1222C5.25738 38.0935 7.25093 36.0145 8.92313 35.3236C11.4723 34.2709 13.3857 33.8692 15.9722 33.8433C19.6311 33.8069 21.5543 34.0637 26.6659 35.2709C31.5019 36.4135 33.4409 36.5186 33.9867 35.6683C34.281 35.2096 34.2156 35.0533 33.4918 34.485C32.2007 33.4711 26.7962 31.7692 23.7752 31.4252C19.4889 30.9369 14.469 30.9878 12.2119 31.5421C11.3216 31.7606 9.63807 32.2849 8.47033 32.7073C7.30257 33.1293 6.26817 33.4074 6.17148 33.3246C5.70127 32.9221 8.6691 27.5546 10.6307 25.2603C11.8747 23.8052 13.2755 23.3245 16.3884 23.2839C21.2067 23.2213 24.0839 23.8726 30.7523 26.5356C33.8116 27.7571 36.6266 28.7969 37.0084 28.8463C38.6378 29.057 37.9039 26.9289 35.6892 25.0201C34.0489 23.6066 31.6854 22.4373 27.753 21.0938C23.8071 19.7455 21.5861 19.4477 17.4507 19.7127C15.4789 19.8391 13.7732 19.863 13.6597 19.7658C13.1377 19.319 16.2923 15.3409 18.6772 13.4386C21.6421 11.0737 24.7588 11.6254 34.4879 16.2364C35.3218 16.6316 42.9029 19.1831 39.6901 16.0831C37.1889 13.6705 30.2191 9.51887 26.7213 8.3581C25.4063 7.92162 24.3243 7.47432 24.3172 7.36371C24.3101 7.25348 25.1557 6.72043 26.1964 6.17925C27.2371 5.63807 29.0063 4.40659 30.1276 3.44233C31.2491 2.47824 32.7949 1.39455 33.5625 1.03393C35.3391 0.199541 38.511 -0.0541057 40.5286 0.47645C43.9687 1.38138 44.6543 1.49655 46.0203 1.39929C46.8119 1.34312 47.8598 1.02456 48.3874 0.679934C50.6006 -0.765585 52.9177 0.129017 54.5044 3.04177C55.6458 5.13718 55.6457 6.89509 54.5031 11.2444C54.1897 12.4368 49.3418 20.6407 52.5301 22.6206C54.8843 24.636 58.8991 20.3695 60.5971 19.3612C63.9789 17.3532 67.7624 15.4649 71.826 16.3927C73.2065 16.7076 75.1982 18.4176 76.6925 20.5709ZM49.5737 32.3366C48.9214 32.3348 48.0931 33.3067 47.8277 34.3854C47.5815 35.3877 47.9402 37.7184 48.5536 39.1016C48.9314 39.9531 49.174 40.1871 50.3315 40.8169C53.1774 42.3648 54.7013 40.929 53.6291 37.71C52.4894 34.2877 51.0197 32.3403 49.5737 32.3366ZM41.7963 41.2342C40.7772 42.4247 41.4417 46.0107 42.7141 46.1863C43.3607 46.2756 44.1637 45.5321 44.2074 44.8038C44.2738 43.6957 43.6074 41.8376 42.9382 41.2647C42.3425 40.7546 42.21 40.751 41.7963 41.2342Z" fill="#21825C"/>
</svg>
