<svg width="20" height="22" viewBox="0 0 20 22" fill="none" xmlns="http://www.w3.org/2000/svg">
<path d="M2.27713 1.53142C0.572198 2.51414 -0.255628 4.54838 0.0695905 6.96587C2.04061 6.10108 5.18439 5.00043 5.98265 5.98315C6.87946 7.14277 3.14438 8.21393 1.0551 10.0221C1.72975 11.3703 2.59975 12.612 3.63713 13.7074C5.18438 12.4102 7.06671 11.0933 7.89453 11.6338C8.72236 12.1743 7.10613 13.7958 5.64757 15.5647C6.7556 16.4709 7.93551 17.2859 9.1757 18.0019C10.1021 16.744 11.1467 15.7121 11.8464 15.9185C12.7432 16.174 12.1125 17.5203 11.3832 19.1516C12.2899 19.584 13.2557 19.9968 14.3398 20.3899C15.1282 19.4071 15.9363 18.7094 16.5572 18.8863C17.178 19.0632 17.0204 19.9673 16.5572 21.1466C17.5427 21.4512 18.5282 21.7362 19.5728 22.0016L10.5061 0.990923C10.5061 0.990923 7.47077 -1.56416 2.27713 1.53142ZM8.55483 8.49893C7.75657 9.2458 6.81047 9.54061 6.45569 9.15735C6.10091 8.77409 6.45569 7.86016 7.26381 7.11329C8.07193 6.36642 9.00817 6.0716 9.36295 6.45486C9.71773 6.83812 9.32353 7.75206 8.51541 8.49893H8.55483ZM15.3943 17.3434C15.0789 17.7562 14.665 17.9724 14.4679 17.825C14.2708 17.6776 14.3595 17.2157 14.6748 16.8423C14.9902 16.4688 15.3943 16.2133 15.6012 16.3607C15.8082 16.5081 15.6702 17.0191 15.3548 17.3926L15.3943 17.3434Z" fill="#406B52"/>
</svg>
