<svg width="60" height="76" viewBox="0 0 60 76" fill="none" xmlns="http://www.w3.org/2000/svg">
<path d="M58.8914 0.00294392C56.8883 0.160128 54.8999 0.46763 52.943 0.922847C48.1252 1.96986 43.4366 3.54059 38.961 5.60696C24.8781 12.0088 13.6652 23.3911 7.48315 37.5604C2.63551 48.3244 0.687987 59.4796 0.148184 70.5713C0.0635096 72.2842 0.0105844 73.9865 0 75.6995C0 76.1013 1.05844 76.1013 1.05844 75.6995C1.17486 64.0685 2.67784 52.4375 7.09152 41.1026C10.1898 32.9207 14.9298 25.458 21.0205 19.1729C25.864 14.2226 31.5021 10.1163 37.7015 7.02383C42.2409 4.74646 47.0286 3.00081 51.9692 1.82161C54.2646 1.28383 56.5903 0.88483 58.9337 0.626787C58.7432 0.626787 59.0078 0.626787 58.9337 0.626787C59.6217 0.626787 59.6323 -0.0499242 58.9337 0.00294392H58.8914Z" fill="#457158"/>
</svg>
