<svg width="17" height="138" viewBox="0 0 17 138" fill="none" xmlns="http://www.w3.org/2000/svg">
<path d="M16.9836 137.668C16.4614 122.59 15.5653 107.515 14.2951 92.4443C13.2508 79.9884 11.9277 67.5395 10.326 55.0977C9.09815 45.539 7.68689 35.9909 6.09215 26.4534C5.0337 20.236 3.91174 14.0292 2.65219 7.82239C2.3029 6.09887 1.94302 4.37534 1.59373 2.64125C1.51707 1.84994 1.33922 1.07172 1.06451 0.325589C1.06451 0.325589 1.06451 0.251573 1.06451 0.230425C0.969248 -0.171378 -0.0892033 -0.00219836 0.00605729 0.389031C0.00605729 0.568785 0.006061 0.473623 0.0801526 0.727393C0.154244 0.981164 0.260089 1.49928 0.344765 1.89051C0.68347 3.39198 1.001 4.90403 1.31854 6.40551C2.51812 12.1929 3.60832 17.9803 4.58915 23.7676C6.16625 32.9139 7.54223 42.0603 8.77004 51.2594C10.393 63.3699 11.7408 75.491 12.8133 87.6226C14.1399 102.32 15.1031 117.025 15.7029 131.736C15.7876 133.724 15.8617 135.712 15.9252 137.7C15.9252 138.102 17.0471 138.102 16.9836 137.7V137.668Z" fill="#457158"/>
</svg>
