<svg width="25" height="40" viewBox="0 0 25 40" fill="none" xmlns="http://www.w3.org/2000/svg">
<path d="M5.5762 0.875836C2.4892 1.85306 0.4116 4.68702 0 8.63503C3.5084 8.03892 8.82 7.45258 9.653 9.25068C10.633 11.4299 4.3022 11.7035 0.3332 13.7655C0.8724 16.1662 1.77101 18.4722 2.9988 20.6061C5.9388 19.1305 9.4178 17.7819 10.535 18.9546C11.8286 20.3227 8.4378 22.0622 5.4488 24.3391C6.88619 26.2334 8.47929 28.0051 10.2116 29.6357C12.1716 27.9939 14.1316 26.704 15.2292 27.3587C16.5522 28.1014 15.0332 29.9875 13.2692 32.3035C14.5334 33.2807 15.9054 34.3557 17.3852 35.3622C19.012 34.1212 20.5604 33.3198 21.4816 33.8377C22.4028 34.3557 21.7952 35.7336 20.5604 37.4046C21.9618 38.2548 23.4318 39.0952 24.9998 39.9161L18.7376 3.1821C18.7376 3.1821 15.043 -2.01676 5.5762 0.875836ZM12.8282 14.303C11.27 15.1727 9.6628 15.2802 9.2414 14.5473C8.82 13.8143 9.751 12.4951 11.3092 11.6156C12.8674 10.7361 14.4648 10.6383 14.8862 11.3713C15.3076 12.1042 14.3864 13.4332 12.8282 14.303ZM20.2174 31.0233C19.5706 31.5706 18.8258 31.7465 18.571 31.4435C18.3162 31.1406 18.6298 30.4663 19.2864 29.8995C19.943 29.3327 20.678 29.1764 20.9328 29.4891C21.1876 29.8018 20.8348 30.437 20.2174 31.0233Z" fill="#396349"/>
</svg>
