<svg width="48" height="137" viewBox="0 0 48 137" fill="none" xmlns="http://www.w3.org/2000/svg">
<path d="M45.9539 0.291874C44.4634 1.90723 43.1144 3.67235 41.798 5.41608C38.1648 10.2791 34.8368 15.3557 31.8326 20.6175C27.0809 28.8867 22.9081 37.4647 19.3433 46.2921C14.5684 58.0764 10.6955 70.195 7.7569 82.5467C4.07935 98.0259 1.63499 113.764 0.446053 129.617C0.279238 131.842 0.130551 134.067 0 136.292C0 137.233 1.44694 137.233 1.50134 136.292C3.18762 107.034 8.64899 77.8397 19.278 50.4107C25.1202 35.3269 32.4854 20.5855 42.1244 7.45935C43.6407 5.30718 45.2864 3.24598 47.0527 1.28676C47.7055 0.591411 46.6393 -0.456966 45.9648 0.21699L45.9539 0.291874Z" fill="#457158"/>
</svg>
