<svg width="27" height="46" viewBox="0 0 27 46" fill="none" xmlns="http://www.w3.org/2000/svg">
<path d="M18.5101 0.900909C15.3927 -0.764735 11.6247 -0.0868556 8.20628 2.65371C11.4013 4.88102 15.9754 8.4641 15.2374 10.5171C14.2662 12.9575 9.19685 8.32852 4.55478 6.88561C3.13342 9.16116 2.05986 11.6351 1.36943 14.2261C4.78786 15.33 8.52676 16.9473 8.48792 18.7097C8.48792 20.7627 4.47709 19.5232 0.407999 18.9906C0.063522 21.5578 -0.0631759 24.1493 0.0292529 26.7378C2.79701 26.9508 5.29285 27.5028 5.6716 28.8101C6.12804 30.408 3.49624 30.7469 0.330307 31.1343C0.524536 32.9064 0.796457 34.7464 1.1752 36.6638C3.38941 36.9447 5.20545 37.5063 5.52593 38.6006C5.88525 39.8595 4.312 40.3147 2.06866 40.6633C2.50567 42.3967 3.0398 44.1689 3.57393 45.9992L26.9494 12.7928C26.9494 12.7928 28.1342 5.89784 18.5101 0.900909ZM13.8098 16.8698C11.9258 16.3565 10.5953 15.2138 10.8381 14.3132C11.0809 13.4126 12.7804 13.1124 14.7227 13.616C16.6649 14.1195 17.9371 15.2719 17.6944 16.1725C17.4516 17.0732 15.6938 17.383 13.8098 16.8698ZM6.76899 35.463C5.79785 35.3855 5.12776 34.9691 5.1666 34.4946C5.20545 34.0201 5.98236 33.7683 6.90495 33.8555C7.82754 33.9426 8.54619 34.3494 8.50734 34.8239C8.46849 35.2984 7.63331 35.5502 6.76899 35.463Z" fill="#64935D"/>
</svg>
