<svg width="40" height="43" viewBox="0 0 40 43" fill="none" xmlns="http://www.w3.org/2000/svg">
<path d="M9.60281 12.5239C10.5767 14.6896 4.28523 14.9615 0.340871 17.0106C0.876724 19.3964 1.76975 21.6882 2.98992 23.8088C5.91167 22.3423 9.36907 21.0021 10.4793 22.1675C11.7649 23.5271 8.39515 25.2558 5.42471 27.5186C6.85317 29.4012 8.43639 31.1618 10.1579 32.7823C12.1058 31.1508 14.0536 29.8688 15.1444 30.5195C16.4592 31.2576 14.9496 33.1319 13.1966 35.4336C14.4529 36.4047 15.8164 37.473 17.287 38.4733C18.9037 37.2399 20.4425 36.4436 21.358 36.9583C22.2735 37.473 21.6696 38.8424 20.4425 40.503C21.8352 41.348 23.2961 42.1832 24.8543 42.9989C26.0522 41.717 27.1528 40.4448 28.1851 39.192C26.4613 38.046 25.3413 37.0748 26.1302 36.1037C26.919 35.1325 28.5455 35.5598 30.4738 36.2008C31.5354 34.7635 32.4801 33.3553 33.3371 31.9762C30.9023 30.3933 28.8571 29.121 29.8603 27.9848C30.6783 27.0136 32.9476 27.5672 35.3142 28.4801C36.4047 26.3846 37.3169 24.2015 38.0411 21.9539C34.4864 20.7982 30.7368 20.2738 31.5062 18.5645C32.1587 17.0981 35.8693 17.234 39.1125 17.6613C39.566 15.2603 39.6546 12.8049 39.3754 10.3776C34.9636 9.74636 28.935 11.5527 29.1396 9.1928C29.3149 7.25047 34.5058 6.04623 38.0022 5.46353C36.3173 1.88966 33.4248 -0.120641 30.2109 0.00561009C20.3841 0.374652 18.6213 6.46384 18.6213 6.46384C18.6213 6.46384 14.9496 1.29726 5.54158 4.17189C2.47375 5.14306 0.409045 7.95942 0 11.8829C3.49636 11.3196 8.8042 10.7369 9.60281 12.5239ZM24.903 22.3715C25.0881 21.6722 26.4223 21.4003 27.8929 21.8082C29.3636 22.2161 30.3959 23.0804 30.2109 23.7505C30.0258 24.4206 28.6818 24.7217 27.2209 24.3138C25.7601 23.9059 24.7082 23.0707 24.903 22.3715ZM19.1764 32.996C19.8289 32.4618 20.5594 32.2773 20.8126 32.5881C21.0658 32.8988 20.7541 33.5592 20.1016 34.1128C19.4491 34.6664 18.7187 34.8315 18.4654 34.5304C18.2122 34.2293 18.5239 33.5301 19.1764 32.996ZM11.2487 14.8741C12.7973 14 14.3847 13.9029 14.8035 14.6313C15.2223 15.3597 14.3068 16.6707 12.7583 17.5448C11.2098 18.4188 9.61255 18.5159 9.19376 17.7876C8.77498 17.0592 9.7002 15.7093 11.2487 14.8741Z" fill="#457158"/>
</svg>
