<svg width="64" height="58" viewBox="0 0 64 58" fill="none" xmlns="http://www.w3.org/2000/svg">
<path d="M13.9331 40.8497C17.3963 41.3706 12.7335 49.3676 12.1241 55.8789C15.5134 57.1058 19.0674 57.8211 22.6686 58.0012C23.1716 53.1779 24.2551 47.882 26.5865 47.39C29.3048 46.8884 28.7824 52.4255 29.2178 57.8951C32.7067 57.6489 36.169 57.1133 39.5688 56.2937C39.0851 52.6088 39.0851 49.1939 40.7296 48.3257C42.6644 47.2839 43.8253 50.6505 45.2667 54.6635C47.54 53.9207 49.8908 53.0525 52.3092 52.03C52.0577 49.0589 52.3092 46.5122 53.6636 45.7984C55.2211 44.9688 56.2562 46.9077 57.33 49.7438C59.4969 48.702 61.6928 47.5637 63.9469 46.2903C63.3084 43.7822 62.6119 41.4092 61.8767 39.1326C59.0712 40.3192 56.9527 40.9172 56.4787 39.2291C56.053 37.7435 57.7266 35.8142 60.058 33.9428C59.0906 31.4926 58.1232 29.1968 57.0881 27.0456C53.2186 28.7916 49.9682 30.2965 49.349 28.1646C48.846 26.3993 51.2838 24.0069 54.302 21.8172C52.5657 18.8006 50.5822 15.9323 48.372 13.2415C44.1058 16.7238 40.4588 20.9587 38.9496 18.6242C37.6534 16.6949 40.778 12.1611 43.8833 8.49539C41.259 6.03214 38.2825 3.97104 35.0511 2.37952C30.7462 7.31852 28.1923 16.2029 25.3772 14.0711C23.0845 12.3154 25.7448 4.94548 27.7957 0.160827C22.0688 -0.601246 17.2706 1.37628 14.9005 5.42781C7.529 17.8718 13.7009 24.8944 13.7009 24.8944C13.7009 24.8944 4.31728 25.3189 0.389703 39.2291C-0.887245 43.7629 1.00883 48.5862 5.56521 52.2229C7.61606 47.4383 11.118 40.4253 13.9331 40.8497ZM38.3886 29.7948C37.6727 29.0038 38.3886 27.1517 40.0815 25.6468C41.7744 24.142 43.6511 23.5632 44.3767 24.3542C45.1022 25.1452 44.3767 26.9974 42.6838 28.4926C40.9908 29.9878 39.0851 30.5762 38.3886 29.7948ZM47.095 45.3257C46.9402 44.1006 47.2982 43.0491 47.8883 42.9816C48.4784 42.9141 49.0685 43.8498 49.2233 45.0749C49.3781 46.3 49.0104 47.3514 48.43 47.4286C47.8496 47.5058 47.1918 46.5604 47.0467 45.3353L47.095 45.3257ZM18.2476 40.6954C18.4024 38.0908 19.5342 36.0361 20.7822 36.1036C22.0301 36.1712 22.9201 38.3513 22.7169 40.9269C22.5138 43.5025 21.44 45.5861 20.1921 45.5186C18.9441 45.4511 18.0541 43.2999 18.1993 40.6954H18.2476Z" fill="#457158"/>
</svg>
