<svg width="72" height="13" viewBox="0 0 72 13" fill="none" xmlns="http://www.w3.org/2000/svg">
<path d="M71.9998 4.66634L68.9315 8.08388L62.1631 0.545044C61.8099 0.195858 61.333 0 60.8361 0C60.3391 0 59.8623 0.195858 59.509 0.545044L52.7513 8.07324L45.9936 0.545044C45.6403 0.195858 45.1635 0 44.6665 0C44.1696 0 43.6927 0.195858 43.3395 0.545044L36.5818 8.07324L29.824 0.545044C29.4708 0.195858 28.9939 0 28.497 0C28.0001 0 27.5232 0.195858 27.17 0.545044L20.4122 8.07324L13.6545 0.545044C13.3013 0.195858 12.8244 0 12.3275 0C11.8305 0 11.3537 0.195858 11.0004 0.545044L4.25335 8.07324L0 3.32748C0.780357 9.82587 -7.85687e-06 3.32748 0.78042 9.82587L2.92099 12.2153C3.27421 12.5645 3.75108 12.7604 4.24802 12.7604C4.74495 12.7604 5.22182 12.5645 5.57505 12.2153L12.3328 4.68714L19.0799 12.2153C19.4362 12.5627 19.9144 12.7571 20.4122 12.7571C20.9101 12.7571 21.3882 12.5627 21.7446 12.2153L28.4917 4.68714C30.7514 7.19299 33.0039 9.70239 35.2494 12.2153C35.6058 12.5627 36.0839 12.7571 36.5818 12.7571C37.0796 12.7571 37.5578 12.5627 37.9141 12.2153L44.6719 4.68714L51.4189 12.2153C51.7753 12.5627 52.2534 12.7571 52.7513 12.7571C53.2492 12.7571 53.7273 12.5627 54.0837 12.2153L60.8414 4.6765L67.5672 12.2153C67.9235 12.5627 68.4017 12.7571 68.8995 12.7571C69.3974 12.7571 69.8755 12.5627 70.2319 12.2153L70.9716 11.3907C71.9998 4.66634 70.9716 11.3907 71.9998 4.66634Z" fill="white"/>
</svg>
