<svg width="31" height="75" viewBox="0 0 31 75" fill="none" xmlns="http://www.w3.org/2000/svg">
<path d="M0.207919 0.510107C1.35033 1.22441 2.44 2.01962 3.46854 2.88964C6.29846 5.18211 8.91352 7.72727 11.2813 10.4936C14.8303 14.618 17.889 19.1393 20.3963 23.967C23.6669 30.253 26.0842 36.9464 27.5845 43.8705C29.4736 52.7347 30.1643 61.812 29.6382 70.8597C29.5747 72.1358 29.49 73.4154 29.3842 74.6986C29.3842 75.1005 30.4428 75.1005 30.4428 74.6986C31.2812 65.3253 30.8611 55.8822 29.1936 46.6202C27.8858 39.4115 25.6141 32.4112 22.4395 25.8072C19.9798 20.7056 16.9237 15.9131 13.3351 11.53C10.8752 8.48826 8.12772 5.6904 5.13062 3.17518C4.24135 2.4243 3.29916 1.69458 2.31462 0.98601C1.90331 0.647837 1.46014 0.350328 0.991316 0.0976553C0.991316 0.0976553 0.991316 0.0976553 0.927798 0.0976553C0.440821 -0.198464 -0.33199 0.245713 0.154987 0.541833L0.207919 0.510107Z" fill="#457158"/>
</svg>
