<svg width="3" height="20" viewBox="0 0 3 20" fill="none" xmlns="http://www.w3.org/2000/svg">
<path d="M0.0257174 0.86325C0.346633 2.22279 0.565016 3.60447 0.679025 4.99665C1.1181 9.74384 1.26356 14.5136 1.11456 19.2786C1.09049 19.3628 1.08631 19.4514 1.10234 19.5375C1.11838 19.6236 1.15419 19.7047 1.20697 19.7746C1.25974 19.8445 1.32804 19.9012 1.40648 19.9403C1.48491 19.9793 1.57135 19.9996 1.65898 19.9996C1.74662 19.9996 1.83305 19.9793 1.91149 19.9403C1.98993 19.9012 2.05822 19.8445 2.111 19.7746C2.16377 19.7047 2.19959 19.6236 2.21562 19.5375C2.23166 19.4514 2.22747 19.3628 2.2034 19.2786C2.4458 14.4681 2.38398 9.64711 2.0183 4.84437C1.90943 3.37772 1.68 1.9225 1.33233 0.493419C1.28324 0.320328 1.16732 0.173808 1.01009 0.0860924C0.85286 -0.00162339 0.667187 -0.0233507 0.49392 0.0256919C0.320653 0.0747345 0.173986 0.190529 0.0861814 0.347601C-0.00162356 0.504674 -0.023375 0.690159 0.0257174 0.86325Z" fill="#457158"/>
</svg>
