<svg width="8" height="4" viewBox="0 0 8 4" fill="none" xmlns="http://www.w3.org/2000/svg">
<path d="M7.38352 0C6.42934 0.0159838 5.48002 0.139681 4.55367 0.368735C2.938 0.708903 1.4841 1.58272 0.426358 2.84931C0.180285 3.13983 -0.17764 3.49739 0.101988 3.77674C0.381617 4.05608 0.784284 3.77674 1.03036 3.54209C2.11038 2.50134 3.50839 1.85221 5.00108 1.69841C5.77892 1.49585 6.57968 1.39445 7.38352 1.39672C7.5537 1.37518 7.71017 1.29235 7.82358 1.16378C7.937 1.03521 7.99957 0.86973 7.99957 0.698361C7.99957 0.526992 7.937 0.361508 7.82358 0.232939C7.71017 0.10437 7.5537 0.0215476 7.38352 0Z" fill="#457158"/>
</svg>
