<svg width="37" height="41" viewBox="0 0 37 41" fill="none" xmlns="http://www.w3.org/2000/svg">
<path d="M36.728 1.56675C35.4209 1.14365 34.084 0.818582 32.7284 0.594277C29.6347 0.0220511 26.4788 -0.137893 23.3431 0.11862C19.4513 0.420279 15.6869 1.64119 12.36 3.6808C8.26322 6.34719 5.11524 10.2393 3.36615 14.8007C0.329411 22.0307 -0.146731 29.599 0.0331457 36.9982C0.0331457 38.2349 0.117791 39.4611 0.191858 40.6872C0.191858 41.0995 1.31344 41.0995 1.24996 40.6872C0.784393 32.8652 0.921949 24.8847 3.54603 17.1684C4.96734 12.3702 7.84349 8.13052 11.778 5.03379C14.8856 2.75554 18.5311 1.32067 22.359 0.869106C25.4345 0.482325 28.5499 0.546423 31.6068 1.05937C32.6649 1.21792 33.8182 1.46104 34.6224 1.66187C35.1197 1.79929 35.617 1.98956 36.1249 2.09526H36.1884C36.7915 2.30666 37.3417 1.75701 36.7386 1.5456L36.728 1.56675Z" fill="#457158"/>
</svg>
