<svg width="14" height="8" viewBox="0 0 14 8" fill="none" xmlns="http://www.w3.org/2000/svg">
<path d="M6.49249 7.38217C3.98244 7.38217 2.7331 5.75161 1.73363 4.43377C1.0665 3.55413 0.596717 2.97304 3.58298e-05 2.68385C3.58298e-05 2.68385 -1.19675e-05 2.68383 3.58298e-05 0.102007C1.82429 0.480048 2.8814 1.83725 3.73258 2.95956C4.73205 4.27741 5.29993 4.92517 6.49249 4.92517C7.68504 4.92517 8.287 4.2104 9.24105 2.95956C10.1951 1.70872 11.5126 0 13.9999 0V2.46816C12.8641 2.46816 12.2054 3.17176 11.2514 4.43377C10.2973 5.69577 8.99118 7.38217 6.49249 7.38217Z" fill="#D9D9D9"/>
</svg>
