<svg width="44" height="46" viewBox="0 0 44 46" fill="none" xmlns="http://www.w3.org/2000/svg">
<path d="M15.2374 10.5171C14.2662 12.9575 9.19685 8.32852 4.55478 6.88561C3.13342 9.16116 2.05986 11.6351 1.36943 14.2261C4.78786 15.33 8.52676 16.9473 8.48792 18.7097C8.48792 20.7627 4.47709 19.5232 0.407999 18.9906C0.063522 21.5578 -0.0631759 24.1493 0.0292529 26.7378C2.79701 26.9508 5.29285 27.5028 5.6716 28.8101C6.12804 30.408 3.49624 30.7469 0.330307 31.1343C0.524536 32.9064 0.796457 34.7464 1.1752 36.6638C3.38941 36.9447 5.20545 37.5063 5.52593 38.6006C5.88525 39.8595 4.312 40.3147 2.06866 40.6633C2.50567 42.3967 3.0398 44.1689 3.57393 45.9992C5.51622 45.9314 7.35168 45.7861 9.12887 45.6021C8.69186 43.3845 8.58503 41.7285 9.89607 41.6608C11.042 41.5833 12.1977 43.094 13.2077 45.0792C15.15 44.7693 16.9854 44.4046 18.7141 43.9849C18.0343 40.8764 17.4321 38.3004 19.0831 38.1745C20.4524 38.0874 21.8217 40.2372 22.9677 42.7647C25.4152 41.9743 27.7929 40.9831 30.0764 39.8014C28.1924 36.1603 25.6772 32.858 27.5903 32.122C29.2413 31.4829 32.0382 34.4462 34.2427 37.2642C36.4488 35.7379 38.4129 33.8903 40.0695 31.7831C37.1561 27.9095 31.0185 24.6654 32.9996 22.9804C34.6408 21.5956 39.6228 24.6557 42.8081 26.854C44.2551 22.7673 43.5462 18.9615 40.9533 16.5986C32.9899 9.32597 26.9008 12.725 26.9008 12.725C26.9008 12.725 28.1342 5.89784 18.5101 0.900909C15.3927 -0.764735 11.6247 -0.0868556 8.20628 2.65371C11.4013 4.88102 15.9851 8.51252 15.2374 10.5171ZM19.559 29.9819C20.2388 29.5848 21.5012 30.4177 22.3267 31.8509C23.1522 33.2841 23.2979 34.7561 22.6083 35.1725C21.9188 35.5889 20.6661 34.7367 19.8406 33.3035C19.0151 31.8703 18.8694 30.3886 19.559 29.9819ZM6.85639 33.8555C7.77898 33.933 8.49763 34.3494 8.45878 34.8239C8.41994 35.2984 7.63331 35.5502 6.72043 35.463C5.80756 35.3759 5.0792 34.9691 5.11805 34.4946C5.15689 34.0201 5.93381 33.7974 6.85639 33.8845V33.8555ZM14.6935 13.5869C16.5775 14.1002 17.908 15.2429 17.6652 16.1435C17.4224 17.0441 15.7229 17.354 13.7807 16.8407C11.8384 16.3275 10.5662 15.1848 10.8089 14.2842C11.0517 13.3836 12.8095 13.1124 14.6935 13.616V13.5869Z" fill="#72A265"/>
</svg>
