<svg width="40" height="92" viewBox="0 0 40 92" fill="none" xmlns="http://www.w3.org/2000/svg">
<path d="M0.342167 1.42729C0.657617 1.6626 0.690249 1.69469 1.15798 2.06905C2.01731 2.7536 2.83313 3.48094 3.63807 4.20827C6.66953 7.0513 9.47 10.1233 12.0138 13.3962C21.3359 25.3009 27.7754 39.2486 31.985 53.6348C35.4853 65.9232 37.601 78.5527 38.294 91.2957C38.294 92.237 39.8495 92.237 39.7842 91.2957C38.5442 70.77 34.2258 50.2121 25.0886 31.6223C20.1176 21.5145 13.7107 11.8132 5.50901 3.93017C4.13152 2.55781 2.65168 1.28857 1.08184 0.133063C0.298657 -0.412437 -0.451895 0.860398 0.33129 1.4059L0.342167 1.42729Z" fill="#72A265"/>
</svg>
