<svg width="10" height="14" viewBox="0 0 10 14" fill="none" xmlns="http://www.w3.org/2000/svg">
<path d="M0.110314 0.671423C1.32931 1.72711 2.44226 2.89913 3.43334 4.1708C5.75861 6.98452 7.49012 10.239 8.5237 13.7386C8.55885 13.8325 8.62789 13.9099 8.71725 13.9556C8.80662 14.0012 8.90984 14.0119 9.00665 13.9854C9.10346 13.9589 9.18685 13.8972 9.24044 13.8124C9.29403 13.7276 9.31394 13.6258 9.29625 13.5271C8.2508 9.99719 6.52125 6.70685 4.20589 3.84306C3.16903 2.47617 1.99141 1.22178 0.692373 0.100527C0.31139 -0.227209 -0.260086 0.322544 0.13148 0.660853L0.110314 0.671423Z" fill="#457158"/>
</svg>
