<svg width="72" height="8" viewBox="0 0 72 8" fill="none" xmlns="http://www.w3.org/2000/svg">
<path d="M64.7959 7.08419C62.3871 7.08419 61.1882 5.51945 60.2291 4.2548C59.5889 3.41067 59.1381 2.85303 58.5655 2.57552C58.2802 2.43726 57.9648 2.36853 57.5806 2.36853C56.4253 2.36853 55.8694 3.04374 54.943 4.2548C54.0165 5.46586 52.7631 7.08419 50.3871 7.08419C48.0111 7.08419 46.7795 5.51945 45.8203 4.2548C44.8612 2.99015 44.3271 2.36853 43.1827 2.36853C42.0383 2.36853 41.4715 3.04374 40.5451 4.2548C39.6187 5.46586 38.3653 7.08419 35.9892 7.08419C33.6132 7.08419 32.3925 5.51945 31.4225 4.2548C30.4524 2.99015 29.9293 2.36853 28.7848 2.36853C27.6404 2.36853 27.0628 3.04374 26.1472 4.2548C25.2317 5.46586 23.9674 7.08419 21.5914 7.08419C19.2153 7.08419 17.9837 5.51945 17.0246 4.2548C16.0655 2.99015 15.5314 2.36853 14.387 2.36853C13.2426 2.36853 12.6758 3.04374 11.7494 4.2548C10.8229 5.46586 9.56952 7.08419 7.19349 7.08419C4.81746 7.08419 3.59675 5.51945 2.63761 4.2548C1.67848 2.99015 1.14442 2.36853 0 2.36853V0C2.39783 0 3.59674 1.57545 4.55588 2.8401C5.51501 4.10475 6.04907 4.72637 7.19349 4.72637C8.33791 4.72637 8.91556 4.04044 9.8311 2.8401C10.7466 1.63975 12.0109 0 14.387 0C16.763 0 17.9837 1.57545 18.9538 2.8401C19.9238 4.10475 20.4469 4.72637 21.5914 4.72637C22.7358 4.72637 23.3025 4.04044 24.229 2.8401C25.1554 1.63975 26.4088 0 28.7848 0C31.1609 0 32.3816 1.57545 33.3516 2.8401C34.3217 4.10475 34.8448 4.72637 35.9892 4.72637C37.1337 4.72637 37.7004 4.04044 38.6268 2.8401C39.5533 1.63975 40.8067 0 43.1827 0C45.5587 0 46.7795 1.57545 47.7495 2.8401C48.7195 4.10475 49.2427 4.72637 50.3871 4.72637C51.5315 4.72637 52.0983 4.04044 53.0247 2.8401C53.9511 1.63975 55.2046 0 57.5806 0C57.9331 0 58.2605 0.0346835 58.5655 0.0978892C60.3161 0.460671 61.3305 1.76309 62.1474 2.8401C63.1065 4.10475 63.6515 4.72637 64.7959 4.72637C65.9403 4.72637 66.518 4.04044 67.4335 2.8401C68.349 1.63975 69.6133 0 72.0003 0V2.36853C70.9103 2.36853 70.2782 3.04374 69.3627 4.2548C68.4471 5.46586 67.1937 7.08419 64.7959 7.08419Z" fill="white"/>
</svg>
