<svg width="33" height="161" viewBox="0 0 33 161" fill="none" xmlns="http://www.w3.org/2000/svg">
<path d="M31.9021 0.14019C31.5227 0.519194 31.1855 0.919254 30.8482 1.30879C29.8155 2.5195 28.8881 3.76179 28.0134 5.02514C26.5274 7.13072 25.1785 9.2363 23.9244 11.3419C22.1223 14.4266 20.5204 17.5428 19.045 20.6696C17.1059 24.8176 15.3986 28.9972 13.8706 33.1978C11.9209 38.546 10.2769 43.8941 8.85418 49.2423C7.13638 55.7275 5.6926 62.2548 4.63874 68.7821C3.26872 76.6043 2.25701 84.4476 1.47716 92.3014C0.623529 101.555 0.170369 110.831 0.0439057 120.095C-0.114173 130.791 0.159831 141.477 0.781608 152.163C0.9432 155.02 1.12938 157.866 1.34015 160.701C1.34015 161.101 2.46778 161.101 2.39401 160.701C1.572 149.647 1.09776 138.593 1.05561 127.528C1.05561 117.979 1.298 108.441 1.98301 98.913C2.57317 90.7117 3.45841 82.5316 4.72305 74.3619C5.77691 67.4872 7.09423 60.6756 8.75933 53.7799C10.1293 48.1474 11.7207 42.5255 13.6071 36.9352C15.1141 32.4819 16.7687 28.0497 18.7605 23.649C20.2569 20.259 21.922 16.8796 23.7558 13.5527C25.0731 11.1734 26.4958 8.81518 28.0766 6.48852C29.0461 5.05672 30.0789 3.62493 31.2382 2.27735C31.7732 1.72445 32.2797 1.14466 32.7557 0.54025L32.8295 0.466555C33.1773 0.119134 32.2288 -0.196703 31.881 0.150718L31.9021 0.14019Z" fill="#457158"/>
</svg>
