<svg width="37" height="40" viewBox="0 0 37 40" fill="none" xmlns="http://www.w3.org/2000/svg">
<path d="M9.59817 8.56051C9.87916 10.7634 4.16244 9.28516 0.0638327 10.0388C-0.106095 12.3057 0.0637156 14.5852 0.567677 16.8022C3.59076 16.2901 7.05956 16.0389 7.72812 17.3916C8.50327 18.9568 5.0151 19.5848 1.72071 20.7926C2.48312 22.8691 3.41648 24.8792 4.51125 26.8023C6.69136 25.8361 8.79396 25.3047 9.59817 26.1453C10.5671 27.1695 8.70675 28.4352 6.48789 30.0101C7.33409 31.2984 8.27719 32.5866 9.31718 33.8749C11.1 33.2082 12.6988 32.9087 13.377 33.6333C14.0553 34.358 13.1348 35.4111 11.5748 36.5319C12.5437 37.672 13.6677 38.8218 14.8401 39.9813C16.2645 39.16 17.6016 38.3291 18.8806 37.4885C17.6694 35.9812 16.9427 34.7928 17.9117 34.2034C18.8806 33.614 20.2177 34.3773 21.7874 35.4788C23.1245 34.5126 24.3648 33.4884 25.5081 32.4836C23.764 30.3966 22.2913 28.6961 23.5024 27.9521C24.4714 27.3531 26.4092 28.4352 28.2405 29.8845C29.7923 28.3229 31.2118 26.636 32.4845 24.8409C29.5777 22.8312 26.3995 21.324 27.5623 20.01C28.5312 18.8795 31.845 20.01 34.6258 21.2853C35.6897 19.2594 36.4472 17.0878 36.8738 14.8408C33.0949 13.063 27.1844 13.0243 28.0371 10.976C28.725 9.2755 33.7053 9.63299 36.9997 10.0678C36.4668 6.40589 34.432 3.80682 31.5349 3.04352C22.6207 0.67634 19.3651 5.65225 19.3651 5.65225C19.3651 5.65225 17.4853 0 8.26104 0C5.25734 0 2.62183 1.9324 1.16842 5.38172C4.46281 5.86482 9.37532 6.74406 9.59817 8.56051ZM20.5859 21.5849C20.9444 21.0051 22.2137 21.1501 23.4152 21.9037C24.6167 22.6573 25.3531 23.7298 24.9558 24.2999C24.5586 24.8699 23.3183 24.7347 22.1169 23.981C20.9154 23.2274 20.2274 22.1549 20.5859 21.5849ZM12.5244 29.527C13.2511 29.2275 13.9584 29.2661 14.1037 29.614C14.2491 29.9618 13.7743 30.4835 13.0476 30.7831C12.3209 31.0826 11.6136 31.0536 11.4682 30.7058C11.3229 30.3579 11.7977 29.8362 12.5244 29.527ZM10.4218 11.1692C12.0496 10.8117 13.5127 11.1692 13.6774 11.9325C13.8421 12.6958 12.7085 13.6137 11.0419 13.9712C9.37532 14.3287 7.96067 13.9712 7.78626 13.2176C7.61186 12.464 8.79396 11.4784 10.4218 11.1209V11.1692Z" fill="#72A265"/>
</svg>
