<svg width="26" height="125" viewBox="0 0 26 125" fill="none" xmlns="http://www.w3.org/2000/svg">
<path d="M25.1155 0.974623C22.5154 0.117135 19.7623 -0.179485 17.0385 0.104424C14.2648 0.383077 11.6004 1.32944 9.27463 2.86211C6.94883 4.39478 5.03122 6.46788 3.6867 8.90311C-1.16145 17.2087 -0.19182 27.071 0.845684 36.2274C2.16438 48.3522 4.4818 60.3996 7.00284 72.2923C9.42692 83.7983 12.1322 95.2463 15.0023 106.646C16.4761 112.447 17.7948 118.423 19.5886 124.176C19.6169 124.258 19.6396 124.342 19.6565 124.427C19.9086 125.307 21.334 125.123 21.0916 124.234C19.831 119.67 18.6384 115.077 17.4652 110.494C14.7502 99.9099 12.2065 89.2741 9.83416 78.5868C7.21616 66.7327 4.83087 54.782 3.11462 42.7442C2.40679 37.7067 1.81532 32.6402 1.5923 27.5544C1.3004 23.904 1.48619 20.2312 2.14499 16.6286C3.48308 10.5758 7.21616 4.56178 13.2667 2.38628C16.7146 1.23101 20.4319 1.14002 23.9326 2.12522C24.1326 2.17299 24.3301 2.23108 24.5241 2.29926C25.3967 2.60866 25.9494 1.28403 25.0768 0.974623H25.1155Z" fill="#457158"/>
</svg>
