<svg width="20" height="40" viewBox="0 0 20 40" fill="none" xmlns="http://www.w3.org/2000/svg">
<path d="M8.27496 0C5.26972 0 2.63286 1.93338 1.17871 5.38447C4.46509 5.81948 9.38011 6.7475 9.60308 8.56488C9.88422 10.7689 4.16456 9.2899 0.0638642 10.0439C-0.106151 12.312 0.0637544 14.5926 0.567973 16.8108C3.5926 16.2984 7.06317 16.0471 7.73208 17.4004C8.50762 18.9665 5.01766 19.5948 1.72159 20.8032C2.48438 22.8808 3.41823 24.8919 4.51356 26.816C6.69479 25.8493 8.79845 25.3176 9.60308 26.1587C10.5725 27.1833 8.7112 28.4497 6.4912 30.0254C7.33784 31.3143 8.28142 32.6033 9.32195 33.8922C11.1057 33.2252 12.7053 32.9255 13.3839 33.6505C14.0625 34.3755 13.1415 35.4292 11.5807 36.5506C12.5502 37.6913 13.6747 38.8416 14.8477 40.0017L19.3556 5.60681C19.3556 5.60681 17.504 0 8.27496 0ZM11.0475 13.93C9.41889 14.2877 7.96474 13.93 7.79024 13.176C7.61574 12.422 8.75967 11.4843 10.4271 11.1266C12.0945 10.7689 13.5196 11.1266 13.6844 11.8903C13.8492 12.654 12.6859 13.6013 11.0572 13.93H11.0475ZM13.0543 30.7988C12.3272 31.1081 11.6195 31.0694 11.4741 30.7214C11.3287 30.3734 11.8037 29.8514 12.5308 29.5421C13.2578 29.2327 13.9655 29.2811 14.1109 29.6291C14.2564 29.9771 13.791 30.4991 13.064 30.7988H13.0543Z" fill="#64935D"/>
</svg>
