<svg width="76" height="13" viewBox="0 0 76 13" fill="none" xmlns="http://www.w3.org/2000/svg">
<path d="M76.0004 1.82486L70.4288 8.03068L63.7049 0.541457C63.354 0.19457 62.8803 0 62.3866 0C61.893 0 61.4192 0.19457 61.0683 0.541457L54.3551 8.02011L47.6418 0.541457C47.2909 0.19457 46.8172 0 46.3235 0C45.8298 0 45.3561 0.19457 45.0052 0.541457L38.2919 8.02011L31.5787 0.541457C31.2278 0.19457 30.754 0 30.2604 0C29.7667 0 29.293 0.19457 28.9421 0.541457L22.2288 8.02011L15.5155 0.541457C15.1646 0.19457 14.6909 0 14.1972 0C13.7036 0 13.2299 0.19457 12.879 0.541457L6.17628 8.02011L0 1.1288C0.795152 7.60556 -8.82584e-05 1.1288 0.795115 7.60557L4.85268 12.1349C5.20358 12.4818 5.67731 12.6764 6.17098 12.6764C6.66465 12.6764 7.13838 12.4818 7.48928 12.1349L14.2025 4.6563L20.9052 12.1349C21.2592 12.48 21.7342 12.6731 22.2288 12.6731C22.7234 12.6731 23.1984 12.48 23.5524 12.1349L30.2551 4.6563C32.4999 7.1386 34.7377 9.63149 36.9684 12.1349C37.3224 12.48 37.7974 12.6731 38.2919 12.6731C38.7865 12.6731 39.2615 12.48 39.6155 12.1349L46.3288 4.6563L53.0315 12.1349C53.3855 12.48 53.8605 12.6731 54.3551 12.6731C54.8497 12.6731 55.3247 12.48 55.6787 12.1349L62.3919 4.64573L69.0734 12.1349C69.4274 12.48 69.9024 12.6731 70.397 12.6731C70.8916 12.6731 71.3666 12.48 71.7206 12.1349L74.9666 8.54326C76.0004 1.82486 74.9666 8.5433 76.0004 1.82486Z" fill="white"/>
</svg>
