<svg width="6" height="14" viewBox="0 0 6 14" fill="none" xmlns="http://www.w3.org/2000/svg">
<path d="M4.6501 0.336705C4.23938 1.95573 3.76206 3.55257 3.26254 5.14942C2.46459 7.99018 1.39011 10.7461 0.0545038 13.3776C-0.200807 13.8434 0.509623 14.2648 0.764934 13.799C2.12477 11.1461 3.22511 8.36836 4.05068 5.50428C4.5724 3.85199 5.06082 2.17751 5.48264 0.52522C5.51208 0.419342 5.49821 0.306122 5.44409 0.210459C5.38996 0.114796 5.30001 0.0445274 5.19402 0.015117C5.08804 -0.0142934 4.9747 -0.000441626 4.87894 0.0536288C4.78318 0.107699 4.71284 0.197561 4.6834 0.303439L4.6501 0.336705Z" fill="#457158"/>
</svg>
