<svg width="64" height="33" viewBox="0 0 64 33" fill="none" xmlns="http://www.w3.org/2000/svg">
<path d="M0.388457 14.2889C-0.884408 18.8082 1.0056 23.616 5.54742 27.2411C7.58207 22.4333 11.0728 15.4812 13.9175 15.9043C17.3696 16.4235 12.7218 24.3949 12.1143 30.8855C15.4927 32.1084 19.0354 32.8214 22.625 33.0009C23.1265 28.1931 24.2065 22.9141 26.5304 22.4237C29.2401 21.9237 28.7194 27.4431 29.1533 32.8951C32.6214 32.6482 36.0629 32.1143 39.4423 31.2989C38.9601 27.6258 38.9601 24.2218 40.5994 23.3564C42.528 22.3179 43.6852 25.6738 45.122 29.6739C47.388 28.9335 49.7313 28.0681 52.142 27.0488C51.8913 24.0872 52.142 21.5487 53.492 20.8371C55.0445 20.0102 56.0763 21.9429 57.1467 24.7699C59.3067 23.7314 61.4956 22.5968 63.7424 21.3275L13.5993 0C13.5993 0 4.30348 0.423087 0.388457 14.2889ZM22.6347 16.0101C22.49 18.6063 21.3618 20.6544 20.1179 20.5871C18.8739 20.5198 17.9868 18.3467 18.1314 15.7793C18.2761 13.2119 19.4139 11.1349 20.6579 11.2022C21.9018 11.2695 22.7986 13.4138 22.6443 16.0101H22.6347ZM49.0081 20.1159C49.1527 21.3371 48.7959 22.3852 48.2173 22.4622C47.6388 22.5391 47.0313 21.5968 46.8866 20.3659C46.742 19.1351 47.0891 18.0967 47.6773 18.0293C48.2656 17.962 48.8634 18.8948 49.0177 20.1159H49.0081Z" fill="#396349"/>
</svg>
