<svg width="24" height="27" viewBox="0 0 24 27" fill="none" xmlns="http://www.w3.org/2000/svg">
<path d="M5.75586 10.5117C6.63756 11.6518 2.96542 12.7049 0.911356 14.4826C1.57463 15.808 2.42998 17.0288 3.44988 18.1057C4.97105 16.8304 6.82165 15.5357 7.63552 16.0671C8.4494 16.5985 6.86041 18.1927 5.42643 19.9318C6.5422 20.84 7.73156 21.6543 8.9823 22.3665C9.89306 21.1298 10.9201 20.1153 11.608 20.3182C12.4897 20.5694 11.8696 21.8931 11.1526 23.4969C12.044 23.922 12.9935 24.3278 14.0593 24.7143C14.8345 23.7481 15.6289 23.0621 16.2394 23.236C16.8498 23.4099 16.6947 24.2988 16.2394 25.4582C17.2083 25.7577 18.1772 26.0379 19.2042 26.2988C19.7274 25.3326 20.1731 24.4631 20.6188 23.5742C19.4464 23.1394 18.681 22.7143 18.9813 22.067C19.2817 21.4197 20.3281 21.41 21.5586 21.5066C21.9849 20.5404 22.3434 19.5743 22.6438 18.6081C20.9773 18.0188 19.5918 17.555 20.0181 16.7434C20.3669 16.0768 21.7912 16.0575 23.3123 16.2604C23.6525 14.8674 23.8761 13.4487 23.9809 12.0189C21.7233 11.845 19.427 12.0189 19.6402 10.9465C19.8146 9.98032 22.0237 9.53588 24.0002 9.32333C23.9231 7.8409 23.6226 6.3785 23.1089 4.98527C20.4153 5.24613 17.1114 7.16879 16.8982 5.74854C16.7141 4.56982 19.6111 3.12058 21.5974 2.28002C20.0859 0.405668 18.0803 -0.367263 16.2103 0.164125C10.455 1.78727 10.2903 5.64226 10.2903 5.64226C10.2903 5.64226 7.38361 3.11092 2.23875 6.15432C0.562554 7.12048 -0.251319 9.12043 0.0684176 11.4972C1.97715 10.6663 5.01949 9.57453 5.75586 10.5117ZM16.2006 14.1348C16.2006 13.7 16.966 13.3619 17.8865 13.3812C18.8069 13.4005 19.553 13.7773 19.5433 14.2121C19.5336 14.6469 18.7779 14.9947 17.8574 14.9754C16.937 14.956 16.1909 14.5792 16.2006 14.1348ZM14.35 21.2361C14.6504 20.8303 15.0573 20.6177 15.2608 20.7627C15.4642 20.9076 15.3673 21.352 15.0573 21.7288C14.7472 22.1056 14.3403 22.3472 14.1465 22.2022C13.9528 22.0573 14.04 21.6419 14.35 21.2361ZM7.0445 11.6614C7.8293 10.9272 8.75945 10.6373 9.10825 11.0141C9.45705 11.3909 9.10825 12.2894 8.31375 13.0237C7.51925 13.758 6.5988 14.0479 6.25 13.671C5.90119 13.2942 6.26938 12.3957 7.0445 11.6614Z" fill="#457158"/>
</svg>
