<svg width="9" height="7" viewBox="0 0 9 7" fill="none" xmlns="http://www.w3.org/2000/svg">
<path d="M7.37332 0.139962C7.14109 0.548241 6.86089 0.927361 6.53868 1.26928C5.59468 2.3464 4.53137 3.31303 3.36916 4.15062C2.35505 4.91578 1.29671 5.62062 0.199641 6.26148C0.108575 6.31327 0.041835 6.39907 0.0140964 6.50002C-0.0136423 6.60096 -0.000106695 6.70878 0.0517309 6.79975C0.103568 6.89072 0.189459 6.9574 0.290507 6.98511C0.391555 7.01283 0.499486 6.9993 0.590552 6.94751C3.37215 5.49992 5.81384 3.47804 7.75367 1.01597C7.84875 0.878768 7.94384 0.74156 8.02836 0.593799C8.27136 0.150516 7.59519 -0.250546 7.34163 0.192737L7.37332 0.139962Z" fill="#457158"/>
</svg>
