<svg width="36" height="111" viewBox="0 0 36 111" fill="none" xmlns="http://www.w3.org/2000/svg">
<path d="M0.306505 1.35566C1.46986 2.15491 2.55292 3.06455 3.54053 4.07185C6.51509 6.98177 9.17053 10.1992 11.462 13.6697C21.0871 27.8938 26.3135 44.8436 29.5379 61.5343C32.5049 77.618 33.9965 93.9378 33.9943 110.291C33.9943 110.48 34.0693 110.66 34.2029 110.794C34.3365 110.927 34.5176 111.002 34.7065 111.002C34.8955 111.002 35.0766 110.927 35.2102 110.794C35.3438 110.66 35.4188 110.48 35.4188 110.291C35.2167 84.7419 32.6275 58.463 23.5318 34.3627C19.3642 23.306 13.7816 12.2108 5.3308 3.75512C4.04261 2.39269 2.61333 1.17014 1.06689 0.107936C0.306506 -0.371958 -0.434627 0.875764 0.306505 1.35566Z" fill="#72A265"/>
</svg>
