<svg width="21" height="21" viewBox="0 0 21 21" fill="none" xmlns="http://www.w3.org/2000/svg">
<path fill-rule="evenodd" clip-rule="evenodd" d="M13.6425 19.7496C13.54 20.4466 12.9046 21 12.1462 21H8.3541C7.59568 21 6.96025 20.4466 6.86801 19.6984L6.59129 17.7614C6.31457 17.6179 6.0481 17.4641 5.78162 17.2899L3.93682 18.0278C3.2194 18.2943 2.43023 17.9971 2.08177 17.3616L0.206219 14.1127C-0.152493 13.4363 0.00124101 12.6369 0.57518 12.186L2.14326 10.9663C2.13301 10.8126 2.12276 10.6589 2.12276 10.4949C2.12276 10.3411 2.13301 10.1772 2.14326 10.0234L0.585429 8.80381C-0.0192568 8.34261 -0.17299 7.51245 0.206219 6.87702L2.10227 3.60762C2.45073 2.97218 3.2399 2.68521 3.93682 2.96193L5.79187 3.7101C6.05835 3.53587 6.32482 3.38214 6.59129 3.23865L6.86801 1.28111C6.96025 0.56369 7.59568 0 8.34385 0H12.1359C12.8944 0 13.5298 0.553441 13.622 1.30161L13.8988 3.23865C14.1755 3.38214 14.442 3.53587 14.7084 3.7101L16.5532 2.97218C17.2809 2.70571 18.0701 3.00293 18.4185 3.63836L20.3043 6.89751C20.6733 7.57394 20.5093 8.37336 19.9354 8.82431L18.3775 10.0439C18.3878 10.1977 18.398 10.3514 18.398 10.5154C18.398 10.6794 18.3878 10.8331 18.3775 10.9868L19.9354 12.2064C20.5093 12.6676 20.6733 13.4671 20.3146 14.1127L18.4083 17.4129C18.0598 18.0483 17.2706 18.3353 16.5635 18.0586L14.7187 17.3207C14.4522 17.4949 14.1857 17.6486 13.9193 17.7921L13.6425 19.7496ZM8.8358 18.9502H11.6645L12.0437 16.3368L12.5869 16.1113C13.0379 15.9268 13.4888 15.6603 13.9603 15.3119L14.4215 14.9634L16.8607 15.9473L18.275 13.4876L16.1945 11.8682L16.2663 11.2943L16.2694 11.2667C16.2991 11.0101 16.3278 10.762 16.3278 10.4949C16.3278 10.2182 16.297 9.95169 16.2663 9.69547L16.1945 9.12153L18.275 7.5022L16.8504 5.04246L14.401 6.02636L13.9398 5.66765C13.5093 5.33968 13.0481 5.07321 12.5766 4.87848L12.0437 4.653L11.6645 2.03953H8.8358L8.45659 4.653L7.9134 4.86823C7.46245 5.06296 7.01149 5.31918 6.54004 5.67789L6.07884 6.01611L3.6396 5.04246L2.215 7.49195L4.29553 9.11128L4.22379 9.68522C4.19304 9.95169 4.1623 10.2284 4.1623 10.4949C4.1623 10.7614 4.1828 11.0381 4.22379 11.2943L4.29553 11.8682L2.215 13.4876L3.62935 15.9473L6.07884 14.9634L6.54004 15.3221C6.98075 15.6603 7.42145 15.9166 7.90315 16.1113L8.44634 16.3368L8.8358 18.9502ZM13.8373 10.4949C13.8373 12.476 12.2313 14.082 10.2501 14.082C8.26904 14.082 6.66303 12.476 6.66303 10.4949C6.66303 8.51377 8.26904 6.90776 10.2501 6.90776C12.2313 6.90776 13.8373 8.51377 13.8373 10.4949Z" fill="#444749"/>
</svg>
