<svg width="19" height="20" viewBox="0 0 19 20" fill="none" xmlns="http://www.w3.org/2000/svg">
<path d="M16.7641 10.723C16.8048 10.4178 16.8251 10.1024 16.8251 9.76666C16.8251 9.44111 16.8048 9.11555 16.7539 8.81034L18.8191 7.20291C19.0023 7.06048 19.0531 6.78579 18.9412 6.58232L16.9879 3.20469C16.8658 2.98087 16.6115 2.90965 16.3876 2.98087L13.9561 3.95753C13.4475 3.57093 12.9083 3.24538 12.308 3.00121L11.9418 0.417118C11.9011 0.172951 11.6976 0 11.4534 0H7.54678C7.30261 0 7.10931 0.172951 7.06862 0.417118L6.70237 3.00121C6.10213 3.24538 5.55275 3.58111 5.05425 3.95753L2.62276 2.98087C2.39894 2.89948 2.1446 2.98087 2.02251 3.20469L0.0793545 6.58232C-0.0427288 6.79597 -0.00203448 7.06048 0.201438 7.20291L2.26668 8.81034C2.21581 9.11555 2.17512 9.45128 2.17512 9.76666C2.17512 10.082 2.19546 10.4178 2.24633 10.723L0.18109 12.3304C-0.00203447 12.4728 -0.0529024 12.7475 0.0590073 12.951L2.01234 16.3286C2.13442 16.5525 2.38876 16.6237 2.61258 16.5525L5.04407 15.5758C5.55275 15.9624 6.09195 16.2879 6.6922 16.5321L7.05845 19.1162C7.10932 19.3604 7.30261 19.5333 7.54678 19.5333H11.4534C11.6976 19.5333 11.9011 19.3604 11.9316 19.1162L12.2979 16.5321C12.8981 16.2879 13.4475 15.9624 13.946 15.5758L16.3775 16.5525C16.6013 16.6338 16.8556 16.5525 16.9777 16.3286L18.931 12.951C19.0531 12.7272 19.0023 12.4728 18.809 12.3304L16.7641 10.723ZM9.50011 13.4292C7.48574 13.4292 5.83761 11.781 5.83761 9.76666C5.83761 7.75229 7.48574 6.10416 9.50011 6.10416C11.5145 6.10416 13.1626 7.75229 13.1626 9.76666C13.1626 11.781 11.5145 13.4292 9.50011 13.4292Z" fill="white"/>
</svg>
